<svg width="131" height="150" viewBox="0 0 131 150" fill="none" xmlns="http://www.w3.org/2000/svg">
<g clip-path="url(#clip0)">
<path opacity="0.1" d="M66.7698 149.652C92.1272 148.466 112.542 144.438 112.367 140.655C112.193 136.872 91.4948 134.766 66.1373 135.952C40.7799 137.138 20.3652 141.166 20.5398 144.949C20.7145 148.732 41.4123 150.838 66.7698 149.652Z" fill="#414141"/>
<path d="M70.1699 135.43L116.461 138.062L116.217 131.017" stroke="#262626" stroke-width="1.09599" stroke-linecap="round" stroke-linejoin="round"/>
<path d="M106.192 41.878C106.192 41.878 84.9791 54.9772 80.4114 46.4335C76.5877 39.2883 77.3516 30.9116 77.3516 30.9116" stroke="#262626" stroke-width="1.09599" stroke-linecap="round" stroke-linejoin="round"/>
<path d="M72.7419 145.844C37.3056 151.821 9.20821 136.843 2.08812 107.174C-3.11698 85.4713 10.0836 54.58 17.594 28.6151C26.3154 -1.52365 46.8914 0.348547 46.8914 0.348547" fill="#231F20"/>
<path style="mix-blend-mode:lighten" opacity="0.6" d="M51.8816 55.1306C33.4869 67.0576 32.7391 102.934 50.8348 118.683C67.2489 132.97 85.2461 121.715 87.6134 104.043C89.4007 90.6914 85.1257 73.5075 78.6732 65.4497C71.4655 56.4485 59.9209 49.9215 51.8816 55.1306Z" fill="url(#paint0_radial)"/>
<path style="mix-blend-mode:lighten" opacity="0.5" d="M50.4227 56.5989C32.0279 68.5259 31.2801 104.402 49.3758 120.151C65.7899 134.438 83.7871 123.183 86.1544 105.511C87.9417 92.1597 83.6668 74.9758 77.2142 66.918C70.0066 57.9167 58.4619 51.3897 50.4227 56.5989Z" fill="url(#paint1_linear)"/>
<path d="M39.8439 0.866131C35.4668 2.41896 31.6222 5.38878 29.2367 13.4319C27.5844 19.0008 27.723 28.0314 24.2797 46.7204C21.9087 59.5688 9.0984 92.6664 23.2766 120.746C33.7342 141.457 57.0386 149.787 76.6845 145.011C103.352 138.528 114.393 109.344 104.308 75.4972C98.012 54.3744 65.563 12.1104 59.7378 6.33957C53.5406 0.205356 45.494 -1.15291 39.8439 0.866131Z" fill="#00BC87"/>
<mask id="mask0" mask-type="alpha" maskUnits="userSpaceOnUse" x="16" y="0" width="92" height="147">
<path d="M39.8992 0.924924C35.5678 2.42656 31.5074 5.90393 29.1281 13.9218C27.478 19.4722 27.5875 28.5051 24.1312 47.157C21.7501 60.0037 8.98898 92.9472 22.9362 121.174C33.2219 141.999 58.1334 150.937 77.1969 145.122C103.129 137.197 116.438 107.877 100.924 67.2731C92.0078 47.1068 73.6606 23.1281 64.3694 11.5121C57.5456 1.38425 45.4948 -1.01497 39.8992 0.924924Z" fill="#00BC87"/>
</mask>
<g mask="url(#mask0)">
<path d="M15.7211 65.4692C26.1782 77.5572 34.4024 104.532 27.3808 111.327C23.4009 115.177 20.8 110.054 24.1488 107.461C26.9151 105.32 30.419 103.256 37.7879 110.587C49.5708 122.318 45.6991 150.839 30.2204 166.722" stroke="#2E2E2E" stroke-width="0.867719" stroke-miterlimit="10"/>
<path d="M88.335 21.8818C88.335 21.8818 68.3332 30.7023 66.8335 63.1492C65.5879 90.1324 84.8595 102.523 84.7921 144.735" stroke="#2E2E2E" stroke-width="0.867719" stroke-miterlimit="10"/>
<path d="M106.751 35.647C89.2635 49.2217 84.2584 61.5531 85.2284 80.426C86.1123 97.6227 103 121.778 111.298 126.424" stroke="#2E2E2E" stroke-width="0.867719" stroke-miterlimit="10"/>
<path d="M26.5718 23.2934C49.202 47.3865 73.4517 141.503 67.1259 137.928C60.8001 134.352 49.451 103.64 49.451 103.64C39.9197 73.7944 14.4947 45.3866 14.4947 45.3866" stroke="#2E2E2E" stroke-width="0.867719" stroke-miterlimit="10"/>
</g>
<g style="mix-blend-mode:lighten" opacity="0.8">
<path d="M51.8816 55.1306C33.4869 67.0576 32.7391 102.934 50.8348 118.683C67.2489 132.97 85.2461 121.715 87.6134 104.043C89.4007 90.6914 85.1257 73.5075 78.6732 65.4497C71.4655 56.4485 59.9209 49.9215 51.8816 55.1306Z" fill="white"/>
</g>
<path style="mix-blend-mode:lighten" d="M50.1971 56.6589C31.8023 68.5859 31.0545 104.462 49.1502 120.211C65.5644 134.498 83.5616 123.243 85.9288 105.571C87.7162 92.2197 83.4412 75.0359 76.9886 66.978C69.781 57.9768 58.2364 51.4498 50.1971 56.6589Z" fill="url(#paint2_linear)" fill-opacity="0.2"/>
<path d="M60.861 15.528C60.861 15.528 60.0731 13.9972 58.1982 14.948" stroke="#262626" stroke-width="0.73066" stroke-linecap="round" stroke-linejoin="round"/>
<path d="M39.0973 16.7762C38.8982 16.7042 38.6867 16.6731 38.4754 16.6848C38.2641 16.6964 38.0573 16.7506 37.8672 16.844C37.677 16.9375 37.5074 17.0683 37.3684 17.2289C37.2293 17.3894 37.1237 17.5764 37.0576 17.7787" stroke="#262626" stroke-width="0.73066" stroke-linecap="round" stroke-linejoin="round"/>
<path d="M40.0595 25.1643C39.9707 24.5963 40.0513 24.0145 40.2913 23.4927C40.5314 22.9709 40.9199 22.5326 41.4078 22.2333C41.8956 21.9339 42.4608 21.7871 43.0316 21.8114C43.6024 21.8357 44.1532 22.03 44.6142 22.3697C45.0752 22.7095 45.4256 23.1792 45.6209 23.7196C45.8163 24.2599 45.8479 24.8465 45.7117 25.4049C45.5755 25.9633 45.2776 26.4685 44.8558 26.8563C44.434 27.2442 43.9073 27.4973 43.3424 27.5835C42.5888 27.6976 41.8209 27.5073 41.206 27.0542C40.5911 26.6011 40.179 25.9218 40.0595 25.1643Z" fill="#262626"/>
<path fill-rule="evenodd" clip-rule="evenodd" d="M43.1562 25.6931C43.1694 25.7785 43.1991 25.8604 43.2437 25.9342C43.2884 26.0079 43.347 26.0722 43.4163 26.1231C43.4856 26.1741 43.5642 26.2109 43.6476 26.2313C43.731 26.2517 43.8176 26.2554 43.9024 26.2421C43.9872 26.2288 44.0686 26.1989 44.1419 26.154C44.2152 26.1091 44.279 26.0501 44.3297 25.9803C44.3803 25.9106 44.4168 25.8315 44.4371 25.7476C44.4574 25.6636 44.4611 25.5765 44.4479 25.4911C44.4213 25.3187 44.3277 25.1641 44.1878 25.0611C44.0478 24.9581 43.873 24.9153 43.7017 24.9421C43.5304 24.9689 43.3767 25.0631 43.2744 25.2039C43.1721 25.3448 43.1296 25.5207 43.1562 25.6931Z" fill="#E3ECCA"/>
<path d="M55.0082 24.052C54.9201 23.4849 55.0013 22.9043 55.2414 22.3836C55.4815 21.863 55.8697 21.4258 56.3568 21.1273C56.8439 20.8288 57.4081 20.6825 57.9779 20.707C58.5477 20.7314 59.0975 20.9255 59.5576 21.2646C60.0178 21.6036 60.3676 22.0725 60.5628 22.6118C60.758 23.1511 60.7898 23.7366 60.6542 24.2941C60.5185 24.8516 60.2216 25.3561 59.8009 25.7436C59.3802 26.1312 58.8547 26.3844 58.291 26.4712C57.5372 26.5862 56.7688 26.3964 56.1537 25.9431C55.5386 25.4898 55.1268 24.8099 55.0082 24.052Z" fill="#262626"/>
<path fill-rule="evenodd" clip-rule="evenodd" d="M57.0244 24.7534C57.0375 24.8388 57.0673 24.9207 57.1119 24.9945C57.1566 25.0682 57.2152 25.1325 57.2845 25.1834C57.3538 25.2344 57.4324 25.2712 57.5158 25.2916C57.5992 25.312 57.6857 25.3157 57.7706 25.3024C57.8554 25.2892 57.9367 25.2592 58.0101 25.2143C58.0834 25.1694 58.1472 25.1104 58.1979 25.0406C58.2485 24.9709 58.285 24.8918 58.3053 24.8079C58.3256 24.7239 58.3292 24.6368 58.3161 24.5514C58.2895 24.379 58.1959 24.2244 58.0559 24.1214C57.916 24.0184 57.7412 23.9756 57.5699 24.0024C57.3986 24.0292 57.2449 24.1234 57.1426 24.2642C57.0403 24.4051 56.9977 24.581 57.0244 24.7534Z" fill="#E3ECCA"/>
<path d="M47.449 29.7163C47.449 29.7163 50.1482 32.4622 47.0332 34.0224" stroke="#262626" stroke-width="1.09599" stroke-linecap="round" stroke-linejoin="round"/>
<path d="M48.5322 31.8857C48.5322 31.8857 53.0917 35.5898 55.5028 31.8857" stroke="#262626" stroke-width="1.09599" stroke-linecap="round" stroke-linejoin="round"/>
<path d="M51.2201 38.8205C51.1326 38.8498 51.0414 38.8792 50.9502 38.9012C50.3876 39.05 49.8014 39.0857 49.2251 39.0062C48.6487 38.9267 48.0937 38.7336 47.5916 38.438C47.0895 38.1424 46.6502 37.75 46.299 37.2834C45.9477 36.8167 45.6913 36.285 45.5445 35.7185C45.3475 34.9623 43.6952 35.9571 42.455 36.2838C35.7142 38.0606 35.5246 42.8108 37.2827 49.5948C39.0408 56.3788 41.4811 60.2406 48.2255 58.4639C54.9699 56.6871 57.2788 50.9567 55.5206 44.1727C55.1559 42.8439 56.1954 42.1978 55.4951 41.1001C54.8239 40.432 52.9637 41.6324 51.2201 38.8205Z" fill="#F9962B"/>
<path opacity="0.3" d="M51.2201 38.8205C51.1326 38.8498 51.0414 38.8792 50.9502 38.9012C50.3876 39.05 49.8014 39.0857 49.2251 39.0062C48.6487 38.9267 48.0937 38.7336 47.5916 38.438C47.0895 38.1424 46.6502 37.75 46.299 37.2834C45.9477 36.8167 45.6913 36.285 45.5445 35.7185C45.3475 34.9623 43.6952 35.9571 42.455 36.2838C35.7142 38.0606 35.5246 42.8108 37.2827 49.5948C39.0408 56.3788 41.4811 60.2406 48.2255 58.4639C54.9699 56.6871 57.2788 50.9567 55.5206 44.1727C55.1559 42.8439 56.1954 42.1978 55.4951 41.1001C54.8677 40.432 52.9637 41.6324 51.2201 38.8205Z" fill="#650000"/>
<path d="M54.8135 41.335C54.1727 41.504 53.5023 41.5258 52.8519 41.3987C52.2016 41.2716 51.5879 40.9989 51.0565 40.6008C50.969 40.6302 50.8778 40.6596 50.7866 40.6816C50.2245 40.8299 49.6388 40.8653 49.0631 40.7858C48.4874 40.7063 47.9329 40.5134 47.4312 40.2182C46.9296 39.923 46.4907 39.5312 46.1395 39.0653C45.7883 38.5993 45.5318 38.0683 45.3845 37.5025C45.1948 36.772 45.1948 36.0047 45.3845 35.2742C42.562 35.1596 39.783 36.0015 37.4924 37.6652C35.2018 39.3288 33.5322 41.718 32.7509 44.45C31.9697 47.182 32.122 50.0988 33.1835 52.7333C34.2449 55.3679 36.1541 57.5677 38.6054 58.9806C41.0566 60.3935 43.908 60.9376 46.703 60.5259C49.498 60.1142 52.0749 58.7704 54.021 56.7098C55.967 54.6492 57.1697 51.9909 57.4364 49.1607C57.7031 46.3306 57.0184 43.4922 55.492 41.1001C55.2726 41.197 55.0457 41.2755 54.8135 41.335Z" fill="#E69700"/>
<path d="M42.7806 46.621C42.7059 46.5864 42.6398 46.5355 42.5871 46.472C42.5343 46.4085 42.4963 46.334 42.4757 46.2539C42.4551 46.1737 42.4525 46.09 42.468 46.0087C42.4835 45.9275 42.5168 45.8507 42.5654 45.784C43.2731 44.8001 44.6409 44.9213 45.1479 45.6078C45.323 45.8427 45.2829 46.0997 45.0458 46.1841C44.9724 46.2115 44.8932 46.2191 44.816 46.2061C44.6891 46.1931 44.5612 46.2195 44.4497 46.2819C44.3381 46.3442 44.2483 46.4395 44.1923 46.5549C44.0974 46.7017 43.2913 46.8449 42.7806 46.621Z" fill="#650000"/>
<path d="M50.1266 50.3326C50.0435 50.294 49.9699 50.2372 49.9113 50.1663C49.8527 50.0955 49.8105 50.0124 49.7878 49.9231C49.7651 49.8338 49.7624 49.7406 49.78 49.6501C49.7976 49.5596 49.835 49.4743 49.8895 49.4002C50.6774 48.2989 52.2021 48.4384 52.7675 49.2056C52.9645 49.4663 52.917 49.7526 52.6544 49.848C52.5725 49.8771 52.4847 49.8847 52.3991 49.8701C52.2576 49.857 52.1154 49.8872 51.9912 49.9566C51.8669 50.026 51.7663 50.1314 51.7024 50.2592C51.5857 50.4207 50.6993 50.5822 50.1266 50.3326Z" fill="#650000"/>
<path d="M38.7025 41.8713C38.9353 41.594 39.2222 41.3677 39.5454 41.2066C39.6411 41.1697 39.7436 41.1534 39.846 41.159C39.9484 41.1646 40.0484 41.1919 40.1397 41.239C40.2309 41.2861 40.3113 41.3521 40.3755 41.4325C40.4397 41.513 40.4863 41.6062 40.5123 41.706C40.6765 42.3229 40.6182 42.8591 40.0964 43.219C39.9121 43.346 39.6969 43.4203 39.4739 43.4339C39.2509 43.4475 39.0284 43.3999 38.8302 43.2961C38.6829 43.2316 38.5609 43.12 38.483 42.9785C38.4052 42.8371 38.3759 42.6738 38.3996 42.5139C38.4293 42.2725 38.5355 42.0471 38.7025 41.8713Z" fill="#650000"/>
<g opacity="0.55">
<path opacity="0.55" d="M35.8 44.9328C35.8803 45.2303 35.457 45.0467 35.0264 45.1605C34.5959 45.2743 34.3222 45.6416 34.2419 45.3404C34.1617 45.0393 34.4499 44.7088 34.8805 44.606C35.3111 44.5032 35.7234 44.6317 35.8 44.9328Z" fill="white"/>
</g>
<g opacity="0.55">
<path opacity="0.55" d="M55.6243 46.8195C55.7009 47.117 55.2813 46.9334 54.8507 47.0472C54.4201 47.1611 54.1428 47.5283 54.0662 47.2272C53.9895 46.926 54.2742 46.5955 54.7047 46.4927C55.1353 46.3899 55.544 46.5184 55.6243 46.8195Z" fill="white"/>
</g>
<g opacity="0.55">
<path opacity="0.55" d="M43.6008 39.8962C43.6774 40.1973 43.2578 40.01 42.8272 40.1238C42.3967 40.2377 42.1194 40.6049 42.0427 40.3075C41.9661 40.01 42.2507 39.6722 42.6776 39.573C43.1046 39.4738 43.5205 39.595 43.6008 39.8962Z" fill="white"/>
</g>
<g opacity="0.55">
<path opacity="0.55" d="M47.8664 56.2981C47.943 56.5992 47.5234 56.4119 47.0929 56.5257C46.6623 56.6396 46.385 57.0068 46.3084 56.7094C46.2317 56.4119 46.5163 56.0741 46.9469 55.9749C47.3775 55.8757 47.7861 56.0006 47.8664 56.2981Z" fill="white"/>
</g>
<g opacity="0.3">
<path opacity="0.3" d="M41.2335 55.5308C41.3174 55.8503 40.927 55.6373 40.5438 55.7365C40.1607 55.8356 39.9272 56.2175 39.8433 55.8944C39.8292 55.7223 39.8759 55.5508 39.975 55.4099C40.0741 55.269 40.2194 55.1677 40.3853 55.1239C40.5512 55.0801 40.7272 55.0965 40.8823 55.1702C41.0374 55.244 41.1617 55.3703 41.2335 55.5272V55.5308Z" fill="#650000"/>
</g>
<g opacity="0.3">
<path opacity="0.3" d="M52.4942 54.1688C52.5745 54.4919 52.1877 54.2752 51.8046 54.3781C51.4215 54.4809 51.1879 54.8555 51.104 54.536C51.09 54.3639 51.1366 54.1924 51.2357 54.0515C51.3349 53.9106 51.4802 53.8093 51.6461 53.7655C51.812 53.7217 51.988 53.7381 52.1431 53.8118C52.2982 53.8856 52.4225 54.0119 52.4942 54.1688Z" fill="#650000"/>
</g>
<path d="M37.7243 53.1006C37.5857 53.1237 37.4437 53.1154 37.3087 53.0762C37.1738 53.0369 37.0493 52.9678 36.9443 52.8738C36.8394 52.7798 36.7567 52.6633 36.7023 52.5329C36.6479 52.4026 36.6232 52.2616 36.63 52.1204C36.703 50.0463 38.7529 48.9156 40.1244 49.4039C40.5949 49.5691 40.7773 49.9729 40.522 50.3216C40.4417 50.4279 40.3364 50.5125 40.2156 50.5676C40.0478 50.6447 39.6575 50.909 39.6611 51.6689C39.6575 51.9552 38.6508 52.928 37.7243 53.1006Z" fill="#650000"/>
<path d="M45.0717 52.0287C45.2403 51.826 45.4491 51.661 45.6847 51.544C45.7549 51.5167 45.83 51.5048 45.9051 51.5088C45.9803 51.5129 46.0537 51.533 46.1205 51.5676C46.1874 51.6023 46.2462 51.6509 46.2931 51.7101C46.34 51.7693 46.3739 51.8379 46.3926 51.9112C46.4697 52.0814 46.492 52.2716 46.4563 52.4552C46.4206 52.6388 46.3287 52.8065 46.1935 52.9349C46.0583 53.0633 45.8866 53.1458 45.7024 53.171C45.5183 53.1962 45.3309 53.1627 45.1666 53.0753C45.0577 53.0292 44.9673 52.9478 44.9098 52.8439C44.8522 52.7401 44.8309 52.6199 44.8491 52.5025C44.8705 52.3245 44.9486 52.1583 45.0717 52.0287Z" fill="#650000"/>
<path d="M49.3398 43.4057C49.5105 43.2037 49.7203 43.0387 49.9564 42.921C50.0266 42.8937 50.1017 42.8817 50.1769 42.8858C50.252 42.8899 50.3254 42.9099 50.3923 42.9446C50.4592 42.9793 50.518 43.0278 50.5649 43.0871C50.6117 43.1463 50.6456 43.2148 50.6643 43.2882C50.744 43.4797 50.7571 43.6927 50.7014 43.8927C50.6458 44.0926 50.5247 44.2678 50.3578 44.3899C50.2232 44.4821 50.0663 44.536 49.9037 44.5457C49.7412 44.5553 49.5791 44.5205 49.4346 44.4449C49.3264 44.3982 49.2368 44.3165 49.18 44.2127C49.1232 44.109 49.1023 43.9891 49.1208 43.8721C49.1432 43.6973 49.2198 43.5341 49.3398 43.4057Z" fill="#650000"/>
<g opacity="0.3">
<path opacity="0.3" d="M48.4825 47.8255C48.5628 48.1487 48.176 47.932 47.7929 48.0348C47.4097 48.1376 47.1762 48.5159 47.0923 48.1927C47.0783 48.0207 47.1249 47.8491 47.224 47.7082C47.3231 47.5673 47.4684 47.4661 47.6344 47.4223C47.8003 47.3784 47.9762 47.3948 48.1313 47.4686C48.2864 47.5423 48.4108 47.6687 48.4825 47.8255Z" fill="#650000"/>
</g>
<g opacity="0.3">
<path opacity="0.3" d="M39.6295 47.1792C39.7134 47.5024 39.3267 47.2857 38.9436 47.3885C38.5604 47.4913 38.3269 47.8659 38.243 47.5464C38.2312 47.3759 38.279 47.2066 38.378 47.0676C38.477 46.9287 38.621 46.8289 38.7853 46.7854C38.9495 46.7419 39.1237 46.7574 39.2778 46.8293C39.432 46.9012 39.5563 47.0249 39.6295 47.1792Z" fill="#650000"/>
</g>
<path opacity="0.1" d="M54.4266 41.4305H54.3245C54.6133 42.078 54.8487 42.7484 55.0285 43.4348C55.6454 45.7984 55.5713 48.2909 54.8152 50.6132C54.059 52.9354 52.6529 54.9886 50.7657 56.5263C48.8785 58.064 46.5904 59.0208 44.1761 59.2818C41.7618 59.5427 39.3239 59.0968 37.1553 57.9976C39.5089 59.8026 42.4179 60.7176 45.3739 60.5827C48.33 60.4479 51.1448 59.2717 53.3264 57.2597C55.5081 55.2478 56.9177 52.5282 57.3088 49.5763C57.6999 46.6244 57.0477 43.6281 55.4662 41.1111C55.1323 41.2555 54.7837 41.3626 54.4266 41.4305Z" fill="#650000"/>
<path d="M15.1094 55.4719C15.1094 55.4719 21.9887 69.2858 31.1223 71.5545C41.1276 74.0397 41.4778 62.5863 41.4778 62.5863" stroke="#262626" stroke-width="1.09599" stroke-linecap="round" stroke-linejoin="round"/>
<path d="M17.0648 55.3801C17.0648 55.3801 16.9262 53.2032 14.8981 53.5446C12.8701 53.886 13.0743 55.806 13.2822 56.3052C13.7637 57.4579 15.7553 56.9183 15.7553 56.9183C15.7553 56.9183 16.9663 56.397 17.0648 55.3801Z" stroke="#00BC85" stroke-width="0.73066" stroke-miterlimit="10" stroke-linecap="round"/>
<path d="M45.7497 61.2796L46.8878 61.4705C46.8878 61.4705 46.979 58.5338 46.3844 57.6637C45.7898 56.7937 44.8925 56.1953 44.2177 56.9809C44.2177 56.9809 43.6524 55.1638 42.5544 55.2886C42.0364 55.3481 41.5514 55.5748 41.172 55.9347C41.172 55.9347 40.53 54.3892 39.2607 54.5728C38.2539 54.7159 38.0716 55.3363 38.0716 55.3363C38.0716 55.3363 37.3092 54.3855 35.9377 55.1308C35.241 55.4979 35.2082 56.6799 36.0289 58.0382C36.6818 59.1101 45.7497 61.2796 45.7497 61.2796Z" fill="#2EC78E"/>
<path d="M46.7339 59.9687C45.4634 58.8472 43.9912 57.9812 42.3969 57.4174C39.6393 56.4079 35.9917 54.8257 35.8713 56.9989C35.751 59.1721 40.6132 63.8086 44.3082 63.9113C48.0032 64.0141 46.7339 59.9687 46.7339 59.9687Z" fill="#2EC78E"/>
<path d="M43.9258 58.0342L44.5393 63.313" stroke="#262626" stroke-width="0.73066" stroke-linecap="round" stroke-linejoin="round"/>
<path d="M40.7783 57.0173L41.4795 62.5862" stroke="#262626" stroke-width="0.73066" stroke-linecap="round" stroke-linejoin="round"/>
<path d="M38.0127 56.4592L38.4473 60.1669" stroke="#262626" stroke-width="0.73066" stroke-linecap="round" stroke-linejoin="round"/>
<path d="M15.1094 55.4719C16.5698 58.3139 18.319 60.9958 20.3291 63.4747" stroke="#00BC87" stroke-width="1.09599" stroke-linecap="round" stroke-linejoin="round"/>
<path d="M49.1055 146.101L95.5064 149.108L95.2584 142.063" stroke="#262626" stroke-width="1.09599" stroke-linecap="round" stroke-linejoin="round"/>
<path d="M59.059 37.3593L57.786 38.6588C57.5067 38.4783 57.2496 38.2651 57.0201 38.0237C56.4924 37.4755 56.1153 36.7988 55.9258 36.0598L57.5927 35.5238L58.056 35.3733L59.059 37.3593Z" fill="#E69700"/>
<path d="M64.1153 39.1213L62.131 38.8056L61.624 38.7249L62.4739 36.5002C62.5281 36.526 62.5805 36.5554 62.6308 36.5883C63.5135 37.1206 63.911 38.0421 64.1153 39.1213Z" fill="#E69700"/>
<path d="M63.258 33.9457C63.3028 34.0434 63.3205 34.1516 63.3091 34.2586C63.2977 34.3656 63.2576 34.4675 63.1932 34.5534C63.1288 34.6394 63.0425 34.7061 62.9433 34.7465C62.8442 34.7869 62.7361 34.7996 62.6304 34.783L61.9663 34.6765L61.5576 34.6141L62.24 32.833L62.364 32.9028C62.762 33.149 63.0743 33.5134 63.258 33.9457Z" fill="#E69700"/>
<path d="M103.868 32.5541C108.524 31.5785 112.069 29.6757 111.785 28.3042C111.502 26.9327 107.497 26.6117 102.84 27.5873C98.1839 28.5629 94.6392 30.4656 94.9229 31.8372C95.2066 33.2087 99.2114 33.5297 103.868 32.5541Z" fill="#D7EFF4"/>
<path d="M95.7136 30.8842L110.808 27.7216C111.025 27.6762 111.251 27.7193 111.436 27.8415C111.622 27.9637 111.751 28.155 111.796 28.3733L114.757 42.6843C115.151 44.5907 114.777 46.5766 113.716 48.2052C112.656 49.8338 110.996 50.9717 109.101 51.3686L106.523 51.9088C104.629 52.3056 102.656 51.9289 101.037 50.8616C99.4192 49.7942 98.2886 48.1236 97.8942 46.2173L94.9607 32.0356C94.9084 31.7831 94.958 31.5199 95.0985 31.3041C95.2391 31.0883 95.459 30.9376 95.71 30.885L95.7136 30.8842Z" fill="#D7EFF4" stroke="#D7EFF4" stroke-width="0.36533" stroke-miterlimit="10"/>
<path d="M108.327 50.5822L106.532 50.9493C105.649 51.1347 104.738 51.1431 103.852 50.9741C102.965 50.805 102.12 50.4618 101.366 49.9641C100.611 49.4664 99.961 48.8238 99.4531 48.0733C98.9452 47.3227 98.5893 46.4787 98.4056 45.5897L97.1982 39.7528L112.865 37.5869L113.988 41.9113C114.794 45.876 113.182 49.5066 108.327 50.5822Z" fill="white"/>
<path d="M103.868 32.5541C108.524 31.5785 112.069 29.6757 111.785 28.3042C111.502 26.9327 107.497 26.6117 102.84 27.5873C98.1839 28.5629 94.6392 30.4656 94.9229 31.8372C95.2066 33.2087 99.2114 33.5297 103.868 32.5541Z" stroke="white" stroke-width="0.36533" stroke-miterlimit="10"/>
<path d="M105.303 41.37C109.702 40.9835 113.163 39.4601 113.034 37.9675C112.904 36.4749 109.233 35.5783 104.834 35.9649C100.435 36.3514 96.9741 37.8748 97.1036 39.3674C97.2331 40.86 100.904 41.7566 105.303 41.37Z" fill="white" stroke="#D7EFF4" stroke-width="0.36533" stroke-miterlimit="10"/>
<path d="M113.477 34.0562L113.193 32.9292C113.193 32.9292 110.49 34.0305 109.935 34.9336C109.381 35.8366 109.206 36.8939 110.191 37.2022C110.191 37.2022 108.768 38.4577 109.326 39.4048C109.59 39.8561 109.992 40.21 110.471 40.4143C110.471 40.4143 109.33 41.6294 110.008 42.7234C110.548 43.5934 111.183 43.509 111.183 43.509C111.183 43.509 110.628 44.6103 111.861 45.5574C112.489 46.0456 113.561 45.6014 114.466 44.2982C115.18 43.285 113.477 34.0562 113.477 34.0562Z" fill="#2EC78E"/>
<path d="M111.892 33.6854C111.386 35.3076 111.195 37.0126 111.33 38.7073C111.527 41.6441 111.564 45.6528 113.588 44.8819C115.612 44.111 117.863 37.7749 116.455 34.3205C115.047 30.8661 111.892 33.6854 111.892 33.6854Z" fill="#2EC78E"/>
<path d="M111.271 37.0514L115.82 34.3533" stroke="#262626" stroke-width="0.73066" stroke-linecap="round" stroke-linejoin="round"/>
<path d="M111.621 40.3591L116.399 37.4626" stroke="#262626" stroke-width="0.73066" stroke-linecap="round" stroke-linejoin="round"/>
<path d="M112.234 43.1308L115.43 41.2292" stroke="#262626" stroke-width="0.73066" stroke-linecap="round" stroke-linejoin="round"/>
<path d="M14.8756 145.745L12.9205 147.742C12.4929 147.463 12.0988 147.136 11.746 146.766C10.9338 145.925 10.3541 144.884 10.0645 143.748L12.6178 142.926L13.3473 142.695L14.8756 145.745Z" fill="#E69700"/>
<path d="M8.87179 147.232L7.29907 146.98L6.89648 146.916L7.56997 145.155C7.61324 145.178 7.65462 145.2 7.69413 145.225C8.3996 145.647 8.71565 146.378 8.87179 147.232Z" fill="#E69700"/>
<path d="M21.5914 144.688C21.661 144.838 21.6886 145.005 21.6713 145.17C21.6539 145.335 21.5923 145.492 21.4929 145.625C21.3936 145.757 21.2603 145.86 21.1074 145.922C20.9544 145.984 20.7876 146.003 20.6248 145.976L19.6071 145.815L18.9834 145.712L20.0266 142.981L20.2199 143.087C20.8314 143.464 21.3108 144.024 21.5914 144.688Z" fill="#E69700"/>
<path d="M130.92 142.283L128.968 144.281C128.541 144.003 128.147 143.677 127.794 143.308C126.982 142.465 126.402 141.424 126.112 140.286L128.666 139.464L129.377 139.237L130.92 142.283Z" fill="#E69700"/>
<path d="M123.808 147.36L120.759 146.872L119.979 146.747L121.284 143.33C121.368 143.374 121.448 143.418 121.525 143.465C122.878 144.284 123.487 145.686 123.808 147.36Z" fill="#E69700"/>
<path d="M117.294 143.025C117.363 143.175 117.39 143.341 117.373 143.506C117.356 143.671 117.295 143.828 117.196 143.96C117.097 144.092 116.964 144.195 116.812 144.257C116.659 144.32 116.493 144.339 116.331 144.314L115.309 144.152L114.686 144.053L115.729 141.318C115.796 141.35 115.86 141.387 115.922 141.428C116.533 141.804 117.012 142.362 117.294 143.025Z" fill="#E69700"/>
</g>
<defs>
<radialGradient id="paint0_radial" cx="0" cy="0" r="1" gradientUnits="userSpaceOnUse" gradientTransform="translate(69.3901 91.1099) rotate(180) scale(32.1936 32.4001)">
<stop offset="0.75" stop-color="white" stop-opacity="0"/>
<stop offset="0.77" stop-color="white" stop-opacity="0.18"/>
<stop offset="0.82" stop-color="white" stop-opacity="0.53"/>
<stop offset="0.86" stop-color="white" stop-opacity="0.78"/>
<stop offset="0.89" stop-color="white" stop-opacity="0.94"/>
<stop offset="0.9" stop-color="white"/>
</radialGradient>
<linearGradient id="paint1_linear" x1="86.563" y1="90.6986" x2="36.208" y2="90.6986" gradientUnits="userSpaceOnUse">
<stop stop-color="white" stop-opacity="0"/>
<stop offset="0.15" stop-color="white" stop-opacity="0.13"/>
<stop offset="0.49" stop-color="white" stop-opacity="0.46"/>
<stop offset="0.98" stop-color="white" stop-opacity="0.98"/>
<stop offset="1" stop-color="white"/>
</linearGradient>
<linearGradient id="paint2_linear" x1="85.3783" y1="78.3045" x2="39.1116" y2="106.334" gradientUnits="userSpaceOnUse">
<stop stop-color="white" stop-opacity="0"/>
<stop offset="0.15" stop-color="white" stop-opacity="0.13"/>
<stop offset="0.49" stop-color="white" stop-opacity="0.46"/>
<stop offset="0.98" stop-color="white" stop-opacity="0.98"/>
<stop offset="1" stop-color="white"/>
</linearGradient>
<clipPath id="clip0">
<rect width="130" height="150" fill="white" transform="translate(0.920898)"/>
</clipPath>
</defs>
</svg>
