<?xml version="1.0" encoding="UTF-8" standalone="no"?>
<!DOCTYPE svg PUBLIC "-//W3C//DTD SVG 1.1//EN" "http://www.w3.org/Graphics/SVG/1.1/DTD/svg11.dtd">
<svg width="100%" height="100%" viewBox="0 0 40 40" version="1.1" xmlns="http://www.w3.org/2000/svg" xmlns:xlink="http://www.w3.org/1999/xlink" xml:space="preserve" xmlns:serif="http://www.serif.com/" style="fill-rule:evenodd;clip-rule:evenodd;">
    <path d="M37.541,20.341C36.788,20.046 36.161,19.498 35.769,18.79C35.203,17.729 34.092,17.067 32.889,17.073L32.723,17.073C29.591,17.216 26.834,14.919 26.41,11.812C26.361,11.557 26.343,11.297 26.355,11.037C26.342,10.493 26.417,9.951 26.576,9.431C26.641,9.14 26.678,8.843 26.687,8.545C26.72,7.632 26.332,6.754 25.635,6.164C24.756,5.396 24.25,4.285 24.25,3.118C24.254,2.013 23.411,1.074 22.312,0.958C19.516,0.653 16.686,0.936 14.005,1.789C8.063,3.63 3.448,8.371 1.767,14.36C1.217,16.192 0.937,18.095 0.936,20.008C0.92,23.438 1.839,26.808 3.594,29.755C3.605,29.778 3.618,29.8 3.633,29.821C3.694,29.916 4.308,30.591 5.117,31.483C4.918,31.743 7.986,34.894 8.246,35.093C11.623,37.748 15.797,39.191 20.092,39.191C29.502,39.191 37.59,32.264 39.036,22.966C39.21,21.853 38.586,20.759 37.541,20.341Z" style="fill:white;fill-rule:nonzero;stroke:rgb(244,93,72);stroke-width:1.66px;"/>
    <path d="M37.763,22.777C36.418,31.478 28.852,37.965 20.047,37.965C16.029,37.965 12.125,36.614 8.966,34.13L7.858,33.266C6.474,31.45 4.746,29.306 4.641,29.146C2.997,26.383 2.135,23.224 2.149,20.008C2.154,18.208 2.415,16.418 2.924,14.692C4.466,9.097 8.783,4.671 14.338,2.99C16.855,2.178 19.518,1.914 22.146,2.215C22.647,2.279 23.028,2.707 23.032,3.212C23.039,4.725 23.707,6.163 24.859,7.144C25.284,7.5 25.528,8.029 25.524,8.584C25.533,8.77 25.515,8.957 25.469,9.137C25.291,9.75 25.198,10.383 25.192,11.02C25.182,11.335 25.201,11.65 25.247,11.962C25.626,15.067 27.988,17.586 31.062,18.164C31.629,18.257 32.204,18.294 32.779,18.275C33.581,18.248 34.333,18.678 34.717,19.383C35.256,20.292 36.044,21.028 36.987,21.504C37.466,21.653 37.786,22.11 37.763,22.611L37.763,22.777Z" style="fill:rgb(248,245,242);fill-rule:nonzero;stroke:rgb(244,93,72);stroke-width:1.66px;"/>
    <g>
        <path d="M14.836,17.406C13.195,17.405 11.846,16.056 11.846,14.415C11.846,12.775 13.195,11.425 14.836,11.425C16.47,11.425 17.817,12.764 17.826,14.398C17.826,14.408 17.827,14.417 17.827,14.426C17.827,16.05 16.499,17.39 14.875,17.406L14.836,17.406Z" style="fill:rgb(244,93,72);fill-rule:nonzero;"/>
        <path d="M14.061,29.423C12.42,29.423 11.07,28.073 11.07,26.432C11.07,24.792 12.42,23.442 14.061,23.442C15.701,23.442 17.051,24.792 17.051,26.432C17.039,28.068 15.697,29.411 14.061,29.423Z" style="fill:rgb(244,93,72);fill-rule:nonzero;"/>
        <path d="M26.632,28.98C24.991,28.98 23.641,27.63 23.641,25.989C23.641,24.349 24.991,22.999 26.632,22.999C28.272,22.999 29.622,24.349 29.622,25.989C29.622,26.004 29.622,26.019 29.622,26.034C29.622,27.633 28.32,28.956 26.72,28.98L26.632,28.98Z" style="fill:rgb(244,93,72);fill-rule:nonzero;"/>
    </g>
</svg>
