<svg width="65" height="30" viewBox="0 0 65 30" fill="none" xmlns="http://www.w3.org/2000/svg">
<path d="M20.1563 1.25C18.715 1.33375 17.0604 2.13668 16.0767 3.15918C15.1879 4.08918 14.4867 5.47039 14.773 6.80664C16.3392 6.84789 17.9113 6.02416 18.8525 4.98291C19.7313 4.00916 20.3975 2.65 20.1563 1.25ZM20.2417 6.8042C17.9805 6.8042 17.035 8.19336 15.4688 8.19336C13.8575 8.19336 12.3846 6.89209 10.4346 6.89209C7.78207 6.89334 3.75 9.35041 3.75 15.1392C3.75 20.4054 8.52207 26.25 11.2158 26.25C12.8521 26.2663 13.2488 25.2212 15.4688 25.21C17.6913 25.1937 18.1708 26.2638 19.8096 26.25C21.6546 26.2362 23.0955 24.2088 24.148 22.6025C24.903 21.4525 25.2133 20.8654 25.7983 19.5654C21.4571 18.4654 20.5933 11.4646 25.7983 10.0171C24.8158 8.34084 21.948 6.8042 20.2417 6.8042Z" fill="white"/>
<path fill-rule="evenodd" clip-rule="evenodd" d="M39.8053 26.7939L50.4344 15.999L54.181 19.8036L41.5453 26.9389C41.0649 27.2103 40.4765 27.2062 39.9991 26.9276L39.8053 26.7939ZM49.3625 14.9103L39.2289 25.2016V4.61905L49.3625 14.9103ZM55.695 10.6575L60.6457 13.4526C61.1322 13.7281 61.4339 14.2442 61.4339 14.8034C61.4339 15.3626 61.1322 15.8787 60.6457 16.1542L55.5597 19.0254L51.5073 14.9103L55.695 10.6575ZM39.6932 2.91258C39.7841 2.82314 39.886 2.74501 39.9991 2.67922C40.4765 2.40063 41.0649 2.39652 41.5453 2.66791L54.3162 9.8793L50.4344 13.8217L39.6932 2.91258Z" fill="white"/>
</svg>
