<?xml version="1.0" encoding="UTF-8" standalone="no"?>
<!DOCTYPE svg PUBLIC "-//W3C//DTD SVG 1.1//EN" "http://www.w3.org/Graphics/SVG/1.1/DTD/svg11.dtd">
<svg width="100%" height="100%" viewBox="0 0 668 840" version="1.1" xmlns="http://www.w3.org/2000/svg" xmlns:xlink="http://www.w3.org/1999/xlink" xml:space="preserve" xmlns:serif="http://www.serif.com/" style="fill-rule:evenodd;clip-rule:evenodd;stroke-linejoin:round;stroke-miterlimit:2;">
    <g transform="matrix(1,0,0,1,-964.303,-472.342)">
        <g transform="matrix(2.08471,0,0,2.08471,964.303,338.92)">
            <path d="M320,252.689C320,259.203 314.693,264.482 308.148,264.482L11.852,264.482C5.307,264.482 0,259.201 0,252.689L0,75.793C0,69.28 5.307,64 11.852,64L308.148,64C314.693,64 320,69.28 320,75.793L320,252.689Z" style="fill:url(#_Linear1);fill-rule:nonzero;"/>
        </g>
        <g transform="matrix(2.08471,0,0,2.08471,964.303,338.92)">
            <path d="M267.049,95.151L269.532,102.19L269.63,102.19L272.112,95.151L273.174,95.151L270.103,103.513L269.058,103.513L265.988,95.151L267.049,95.151ZM274.345,103.513L274.345,97.241L275.309,97.241L275.309,103.513L274.345,103.513ZM274.835,96.196C274.654,96.199 274.48,96.13 274.35,96.004C274.22,95.886 274.147,95.718 274.149,95.543C274.149,95.363 274.216,95.209 274.35,95.082C274.48,94.956 274.654,94.887 274.835,94.89C275.015,94.887 275.189,94.956 275.317,95.082C275.448,95.199 275.522,95.367 275.521,95.542C275.523,95.718 275.448,95.887 275.317,96.004C275.189,96.13 275.015,96.199 274.835,96.196ZM277.074,103.513L277.074,97.241L278.005,97.241L278.005,98.189L278.07,98.189C278.184,97.879 278.391,97.627 278.691,97.433C278.99,97.24 279.328,97.143 279.703,97.143C279.774,97.143 279.862,97.145 279.969,97.147C280.075,97.15 280.155,97.154 280.21,97.16L280.21,98.14C280.136,98.125 280.06,98.112 279.985,98.103C279.865,98.083 279.744,98.074 279.622,98.074C279.317,98.074 279.045,98.138 278.805,98.266C278.573,98.386 278.379,98.567 278.242,98.789C278.103,99.016 278.032,99.278 278.037,99.544L278.037,103.513L277.074,103.513ZM284.472,97.241L284.472,98.058L281.222,98.058L281.222,97.241L284.472,97.241ZM282.169,95.739L283.133,95.739L283.133,101.716C283.133,101.989 283.172,102.193 283.251,102.329C283.321,102.452 283.43,102.547 283.562,102.598C283.69,102.642 283.824,102.664 283.966,102.664C284.109,102.666 284.251,102.649 284.39,102.615L284.586,103.48C284.355,103.561 284.112,103.6 283.868,103.594C283.596,103.594 283.329,103.536 283.068,103.419C282.809,103.302 282.586,103.117 282.422,102.884C282.254,102.645 282.169,102.342 282.169,101.978L282.169,95.738L282.169,95.739ZM289.874,100.949L289.874,97.241L290.837,97.241L290.837,103.513L289.874,103.513L289.874,102.451L289.809,102.451C289.662,102.77 289.433,103.041 289.123,103.264C288.812,103.484 288.42,103.594 287.947,103.594C287.555,103.594 287.206,103.509 286.901,103.337C286.588,103.154 286.338,102.881 286.183,102.553C286.009,102.202 285.922,101.76 285.922,101.226L285.922,97.241L286.885,97.241L286.885,101.161C286.885,101.618 287.013,101.983 287.269,102.255C287.528,102.527 287.857,102.664 288.257,102.664C288.497,102.664 288.74,102.602 288.988,102.48C289.238,102.357 289.448,102.17 289.617,101.916C289.788,101.663 289.874,101.341 289.874,100.949ZM294.448,103.66C294.05,103.66 293.69,103.585 293.366,103.435C293.053,103.292 292.785,103.064 292.594,102.778C292.404,102.489 292.308,102.141 292.308,101.733C292.308,101.373 292.379,101.082 292.521,100.859C292.662,100.633 292.851,100.456 293.088,100.328C293.325,100.2 293.586,100.105 293.872,100.042C294.161,99.977 294.451,99.925 294.742,99.887C295.123,99.838 295.432,99.801 295.669,99.777C295.908,99.75 296.082,99.705 296.191,99.642C296.303,99.58 296.359,99.471 296.359,99.316L296.359,99.283C296.359,98.88 296.248,98.567 296.028,98.343C295.81,98.121 295.479,98.009 295.036,98.009C294.576,98.009 294.215,98.109 293.954,98.311C293.692,98.513 293.509,98.728 293.403,98.956L292.488,98.63C292.651,98.249 292.869,97.952 293.141,97.74C293.416,97.525 293.716,97.375 294.039,97.29C294.366,97.203 294.687,97.16 295.003,97.16C295.204,97.16 295.436,97.184 295.697,97.233C295.961,97.279 296.216,97.376 296.461,97.523C296.708,97.67 296.914,97.892 297.077,98.189C297.241,98.485 297.322,98.883 297.322,99.381L297.322,103.513L296.359,103.513L296.359,102.664L296.31,102.664C296.225,102.826 296.114,102.973 295.983,103.1C295.808,103.271 295.602,103.405 295.375,103.496C295.121,103.605 294.813,103.66 294.448,103.66ZM294.595,102.794C294.976,102.794 295.297,102.719 295.558,102.57C296.046,102.306 296.353,101.797 296.359,101.243L296.359,100.361C296.318,100.41 296.228,100.455 296.089,100.496C295.933,100.538 295.775,100.572 295.615,100.598C295.309,100.645 295.001,100.686 294.693,100.72C294.454,100.75 294.219,100.804 293.99,100.879C293.791,100.94 293.611,101.051 293.468,101.202C293.337,101.343 293.272,101.537 293.272,101.782C293.272,102.116 293.396,102.37 293.643,102.541C293.894,102.71 294.211,102.794 294.595,102.794ZM300.044,95.151L300.044,103.513L299.081,103.513L299.081,95.151L300.044,95.151Z" style="fill:white;fill-rule:nonzero;"/>
        </g>
        <g transform="matrix(2.08471,0,0,2.08471,964.303,338.92)">
            <path d="M320,321.689C320,328.203 314.693,333.482 308.148,333.482L11.852,333.482C5.307,333.482 0,328.201 0,321.689L0,144.793C0,138.281 5.307,133 11.852,133L308.148,133C314.693,133 320,138.281 320,144.793L320,321.689Z" style="fill:url(#_Linear2);fill-rule:nonzero;"/>
        </g>
        <g transform="matrix(2.08471,0,0,2.08471,964.303,338.92)">
            <path d="M267.048,160.362L269.531,167.401L269.629,167.401L272.111,160.362L273.173,160.362L270.102,168.724L269.057,168.724L265.987,160.362L267.048,160.362ZM274.345,168.724L274.345,162.453L275.308,162.453L275.308,168.724L274.345,168.724ZM274.835,161.407C274.654,161.41 274.48,161.341 274.349,161.216C274.22,161.098 274.147,160.929 274.149,160.754C274.149,160.574 274.215,160.421 274.349,160.293C274.479,160.167 274.654,160.098 274.835,160.101C275.015,160.098 275.188,160.167 275.316,160.293C275.448,160.41 275.522,160.578 275.521,160.754C275.521,160.934 275.452,161.088 275.316,161.216C275.188,161.341 275.014,161.41 274.835,161.407ZM277.073,168.724L277.073,162.453L278.004,162.453L278.004,163.4L278.069,163.4C278.184,163.09 278.391,162.838 278.69,162.645C278.991,162.451 279.344,162.35 279.702,162.355C279.871,162.356 280.04,162.361 280.209,162.371L280.209,163.351C280.135,163.336 280.059,163.323 279.984,163.314C279.864,163.295 279.743,163.285 279.621,163.286C279.337,163.281 279.056,163.347 278.804,163.477C278.326,163.722 278.028,164.218 278.037,164.755L278.037,168.724L277.073,168.724ZM284.471,162.453L284.471,163.269L281.221,163.269L281.221,162.453L284.471,162.453ZM282.169,160.95L283.132,160.95L283.132,166.928C283.132,167.2 283.172,167.404 283.251,167.54C283.32,167.663 283.43,167.758 283.561,167.809C283.689,167.853 283.824,167.875 283.965,167.875C284.071,167.875 284.158,167.869 284.226,167.858L284.39,167.826L284.586,168.691C284.497,168.722 284.405,168.747 284.312,168.765C284.166,168.795 284.016,168.809 283.867,168.806C283.591,168.805 283.318,168.745 283.067,168.63C282.808,168.513 282.585,168.328 282.422,168.095C282.253,167.856 282.169,167.554 282.169,167.189L282.169,160.95ZM289.873,166.16L289.873,162.453L290.837,162.453L290.837,168.724L289.873,168.724L289.873,167.662L289.808,167.662C289.661,167.981 289.432,168.252 289.122,168.475C288.812,168.695 288.42,168.806 287.946,168.806C287.581,168.813 287.221,168.724 286.901,168.548C286.588,168.365 286.337,168.092 286.182,167.765C286.008,167.413 285.921,166.971 285.921,166.438L285.921,162.453L286.884,162.453L286.884,166.372C286.884,166.83 287.012,167.194 287.268,167.467C287.527,167.739 287.856,167.875 288.256,167.875C288.496,167.875 288.739,167.814 288.987,167.691C289.238,167.569 289.447,167.381 289.616,167.128C289.787,166.874 289.873,166.552 289.873,166.16ZM294.447,168.871C294.05,168.871 293.689,168.796 293.365,168.646C293.052,168.503 292.784,168.275 292.593,167.989C292.403,167.701 292.308,167.352 292.308,166.944C292.308,166.585 292.378,166.293 292.52,166.07C292.659,165.846 292.855,165.663 293.087,165.539C293.324,165.411 293.586,165.316 293.871,165.254C294.16,165.188 294.45,165.137 294.741,165.098C295.122,165.049 295.431,165.013 295.668,164.988C295.907,164.961 296.082,164.916 296.19,164.853C296.302,164.791 296.358,164.682 296.358,164.527L296.358,164.494C296.358,164.091 296.248,163.778 296.027,163.555C295.809,163.332 295.479,163.22 295.035,163.22C294.575,163.22 294.214,163.321 293.953,163.522C293.692,163.724 293.508,163.939 293.402,164.167L292.487,163.841C292.651,163.46 292.868,163.163 293.14,162.951C293.415,162.736 293.715,162.586 294.039,162.502C294.353,162.417 294.677,162.372 295.002,162.371C295.204,162.371 295.435,162.395 295.696,162.444C295.96,162.491 296.215,162.587 296.46,162.734C296.708,162.881 296.913,163.103 297.076,163.4C297.24,163.697 297.321,164.094 297.321,164.592L297.321,168.724L296.358,168.724L296.358,167.875L296.309,167.875C296.225,168.038 296.114,168.185 295.982,168.312C295.807,168.482 295.6,168.617 295.374,168.708C295.121,168.817 294.812,168.871 294.447,168.871ZM294.594,168.005C294.975,168.005 295.296,167.931 295.558,167.781C296.044,167.516 296.351,167.008 296.358,166.454L296.358,165.572C296.317,165.621 296.227,165.666 296.088,165.707C295.932,165.749 295.774,165.783 295.615,165.809C295.308,165.857 295.001,165.898 294.692,165.931C294.453,165.961 294.218,166.015 293.99,166.091C293.775,166.161 293.6,166.269 293.467,166.413C293.336,166.555 293.271,166.748 293.271,166.993C293.271,167.328 293.395,167.581 293.643,167.752C293.893,167.921 294.21,168.005 294.594,168.005ZM300.044,160.362L300.044,168.724L299.08,168.724L299.08,160.362L300.044,160.362Z" style="fill:white;fill-rule:nonzero;"/>
        </g>
        <g transform="matrix(2.08471,0,0,2.08471,964.303,338.92)">
            <g transform="matrix(1.65812,0,0,1.65812,-178.104,-409.573)">
                <g transform="matrix(0.479682,0,0,0.479682,121.244,339.959)">
                    <rect x="0" y="0" width="9.756" height="29.269" style="fill:rgb(244,244,244);"/>
                </g>
                <g transform="matrix(0.479682,0,0,0.479682,121.244,339.947)">
                    <path d="M19.508,19.536L27.313,19.536C28.39,19.536 29.264,20.409 29.264,21.487L29.264,27.341C29.264,28.418 28.39,29.292 27.313,29.292L21.459,29.292C20.381,29.292 19.508,28.418 19.508,27.341L19.508,19.536Z" style="fill:rgb(255,200,87);fill-rule:nonzero;"/>
                </g>
                <g transform="matrix(0.479682,0,0,0.479682,121.244,339.947)">
                    <clipPath id="_clip3">
                        <rect x="0.005" y="0.026" width="29.268" height="9.756"/>
                    </clipPath>
                    <g clip-path="url(#_clip3)">
                        <g transform="matrix(-3.82857e-16,1,-1,-3.82857e-16,29.2734,0.0263672)">
                            <rect x="0" y="0" width="9.756" height="29.268" style="fill:rgb(244,244,244);fill-opacity:0.7;"/>
                        </g>
                        <g transform="matrix(-3.82857e-16,1,-1,-3.82857e-16,19.5225,0.0273438)">
                            <rect x="0" y="0" width="9.756" height="19.512" style="fill:rgb(244,244,244);"/>
                        </g>
                    </g>
                </g>
                <g transform="matrix(-0.479682,3.67299e-16,-3.67299e-16,-0.479682,130.602,349.318)">
                    <rect x="0" y="0" width="9.756" height="19.513" style="fill:rgb(244,244,244);fill-opacity:0.7;"/>
                </g>
                <g transform="matrix(0.479682,0,0,0.479682,121.244,339.947)">
                    <path d="M45.385,0.238L55.359,0.238C56.903,0.238 58.302,0.563 59.557,1.212C60.826,1.846 61.836,2.784 62.586,4.025C63.351,5.251 63.733,6.751 63.733,8.525C63.733,10.285 63.38,11.742 62.673,12.896C61.98,14.05 61.144,14.923 60.163,15.514C59.182,16.091 58.273,16.409 57.437,16.466L64.512,28.8L60.314,28.8L53.693,16.726L49.085,16.726L49.085,28.8L45.385,28.8L45.385,0.238ZM49.085,13.978L54.061,13.978C55.763,13.978 57.17,13.552 58.28,12.701C59.391,11.85 59.946,10.487 59.946,8.612C59.946,6.737 59.391,5.388 58.28,4.566C57.184,3.743 55.785,3.332 54.083,3.332L49.085,3.332L49.085,13.978Z" style="fill:rgb(244,244,244);fill-rule:nonzero;"/>
                </g>
                <g transform="matrix(0.479682,0,0,0.479682,121.244,339.947)">
                    <path d="M83.561,28.8L83.561,25.338C83.445,25.698 83.106,26.196 82.544,26.831C81.995,27.465 81.238,28.042 80.272,28.562C79.32,29.067 78.195,29.319 76.896,29.319C75.252,29.319 73.759,28.93 72.417,28.151C71.09,27.372 70.03,26.283 69.237,24.883C68.458,23.47 68.068,21.818 68.068,19.928C68.068,18.039 68.458,16.394 69.237,14.995C70.03,13.581 71.09,12.485 72.417,11.706C73.759,10.913 75.252,10.516 76.896,10.516C78.18,10.516 79.291,10.747 80.228,11.208C81.18,11.67 81.938,12.204 82.5,12.81C83.077,13.415 83.416,13.935 83.517,14.367L83.517,11.035L87.239,11.035L87.239,28.8L83.561,28.8ZM71.79,19.928C71.79,21.212 72.071,22.323 72.634,23.261C73.196,24.198 73.925,24.927 74.819,25.446C75.728,25.951 76.694,26.203 77.719,26.203C78.815,26.203 79.796,25.944 80.661,25.424C81.527,24.905 82.212,24.177 82.717,23.239C83.222,22.287 83.474,21.183 83.474,19.928C83.474,18.673 83.222,17.577 82.717,16.639C82.212,15.687 81.527,14.952 80.661,14.432C79.796,13.899 78.815,13.632 77.719,13.632C76.694,13.632 75.728,13.891 74.819,14.411C73.925,14.93 73.196,15.659 72.634,16.596C72.071,17.534 71.79,18.645 71.79,19.928Z" style="fill:rgb(244,244,244);fill-rule:nonzero;"/>
                </g>
                <g transform="matrix(0.479682,0,0,0.479682,121.244,339.947)">
                    <path d="M92.681,28.8L92.681,11.035L96.445,11.035L96.445,28.8L92.681,28.8ZM94.606,4.955C93.928,4.955 93.344,4.717 92.854,4.241C92.378,3.751 92.14,3.166 92.14,2.488C92.14,1.81 92.378,1.226 92.854,0.736C93.344,0.245 93.928,0 94.606,0C95.053,0 95.464,0.115 95.84,0.346C96.229,0.577 96.539,0.88 96.77,1.255C97.001,1.616 97.116,2.027 97.116,2.488C97.116,3.166 96.871,3.751 96.38,4.241C95.89,4.717 95.299,4.955 94.606,4.955Z" style="fill:rgb(244,244,244);fill-rule:nonzero;"/>
                </g>
                <g transform="matrix(0.479682,0,0,0.479682,121.244,339.947)">
                    <path d="M101.508,11.035L117,11.035L106.376,25.944L116.567,25.944L116.567,28.8L100.296,28.8L110.92,13.87L101.508,13.87L101.508,11.035Z" style="fill:rgb(244,244,244);fill-rule:nonzero;"/>
                </g>
            </g>
        </g>
        <g transform="matrix(2.08471,0,0,2.08471,964.303,338.92)">
            <g transform="matrix(1.65812,0,0,1.65812,-178.104,-476.057)">
                <g transform="matrix(0.479682,0,0,0.479682,121.244,339.959)">
                    <rect x="0" y="0" width="9.756" height="29.269" style="fill:rgb(244,244,244);"/>
                </g>
                <g transform="matrix(0.479682,0,0,0.479682,121.244,339.947)">
                    <path d="M19.508,19.536L27.313,19.536C28.39,19.536 29.264,20.409 29.264,21.487L29.264,27.341C29.264,28.418 28.39,29.292 27.313,29.292L21.459,29.292C20.381,29.292 19.508,28.418 19.508,27.341L19.508,19.536Z" style="fill:rgb(255,200,87);fill-rule:nonzero;"/>
                </g>
                <g transform="matrix(0.479682,0,0,0.479682,121.244,339.947)">
                    <clipPath id="_clip4">
                        <rect x="0.005" y="0.026" width="29.268" height="9.756"/>
                    </clipPath>
                    <g clip-path="url(#_clip4)">
                        <g transform="matrix(-3.82857e-16,1,-1,-3.82857e-16,29.2734,0.0263672)">
                            <rect x="0" y="0" width="9.756" height="29.268" style="fill:rgb(244,244,244);fill-opacity:0.7;"/>
                        </g>
                        <g transform="matrix(-3.82857e-16,1,-1,-3.82857e-16,19.5225,0.0273438)">
                            <rect x="0" y="0" width="9.756" height="19.512" style="fill:rgb(244,244,244);"/>
                        </g>
                    </g>
                </g>
                <g transform="matrix(-0.479682,3.67299e-16,-3.67299e-16,-0.479682,130.602,349.318)">
                    <rect x="0" y="0" width="9.756" height="19.513" style="fill:rgb(244,244,244);fill-opacity:0.7;"/>
                </g>
                <g transform="matrix(0.479682,0,0,0.479682,121.244,339.947)">
                    <path d="M45.385,0.238L55.359,0.238C56.903,0.238 58.302,0.563 59.557,1.212C60.826,1.846 61.836,2.784 62.586,4.025C63.351,5.251 63.733,6.751 63.733,8.525C63.733,10.285 63.38,11.742 62.673,12.896C61.98,14.05 61.144,14.923 60.163,15.514C59.182,16.091 58.273,16.409 57.437,16.466L64.512,28.8L60.314,28.8L53.693,16.726L49.085,16.726L49.085,28.8L45.385,28.8L45.385,0.238ZM49.085,13.978L54.061,13.978C55.763,13.978 57.17,13.552 58.28,12.701C59.391,11.85 59.946,10.487 59.946,8.612C59.946,6.737 59.391,5.388 58.28,4.566C57.184,3.743 55.785,3.332 54.083,3.332L49.085,3.332L49.085,13.978Z" style="fill:rgb(244,244,244);fill-rule:nonzero;"/>
                </g>
                <g transform="matrix(0.479682,0,0,0.479682,121.244,339.947)">
                    <path d="M83.561,28.8L83.561,25.338C83.445,25.698 83.106,26.196 82.544,26.831C81.995,27.465 81.238,28.042 80.272,28.562C79.32,29.067 78.195,29.319 76.896,29.319C75.252,29.319 73.759,28.93 72.417,28.151C71.09,27.372 70.03,26.283 69.237,24.883C68.458,23.47 68.068,21.818 68.068,19.928C68.068,18.039 68.458,16.394 69.237,14.995C70.03,13.581 71.09,12.485 72.417,11.706C73.759,10.913 75.252,10.516 76.896,10.516C78.18,10.516 79.291,10.747 80.228,11.208C81.18,11.67 81.938,12.204 82.5,12.81C83.077,13.415 83.416,13.935 83.517,14.367L83.517,11.035L87.239,11.035L87.239,28.8L83.561,28.8ZM71.79,19.928C71.79,21.212 72.071,22.323 72.634,23.261C73.196,24.198 73.925,24.927 74.819,25.446C75.728,25.951 76.694,26.203 77.719,26.203C78.815,26.203 79.796,25.944 80.661,25.424C81.527,24.905 82.212,24.177 82.717,23.239C83.222,22.287 83.474,21.183 83.474,19.928C83.474,18.673 83.222,17.577 82.717,16.639C82.212,15.687 81.527,14.952 80.661,14.432C79.796,13.899 78.815,13.632 77.719,13.632C76.694,13.632 75.728,13.891 74.819,14.411C73.925,14.93 73.196,15.659 72.634,16.596C72.071,17.534 71.79,18.645 71.79,19.928Z" style="fill:rgb(244,244,244);fill-rule:nonzero;"/>
                </g>
                <g transform="matrix(0.479682,0,0,0.479682,121.244,339.947)">
                    <path d="M92.681,28.8L92.681,11.035L96.445,11.035L96.445,28.8L92.681,28.8ZM94.606,4.955C93.928,4.955 93.344,4.717 92.854,4.241C92.378,3.751 92.14,3.166 92.14,2.488C92.14,1.81 92.378,1.226 92.854,0.736C93.344,0.245 93.928,0 94.606,0C95.053,0 95.464,0.115 95.84,0.346C96.229,0.577 96.539,0.88 96.77,1.255C97.001,1.616 97.116,2.027 97.116,2.488C97.116,3.166 96.871,3.751 96.38,4.241C95.89,4.717 95.299,4.955 94.606,4.955Z" style="fill:rgb(244,244,244);fill-rule:nonzero;"/>
                </g>
                <g transform="matrix(0.479682,0,0,0.479682,121.244,339.947)">
                    <path d="M101.508,11.035L117,11.035L106.376,25.944L116.567,25.944L116.567,28.8L100.296,28.8L110.92,13.87L101.508,13.87L101.508,11.035Z" style="fill:rgb(244,244,244);fill-rule:nonzero;"/>
                </g>
            </g>
        </g>
        <g transform="matrix(2.08471,0,0,2.08471,964.303,338.92)">
            <path d="M320,390.689C320,397.203 314.693,402.482 308.148,402.482L11.852,402.482C5.307,402.482 0,397.201 0,390.689L0,213.793C0,207.281 5.307,202 11.852,202L308.148,202C314.693,202 320,207.281 320,213.793L320,390.689Z" style="fill:url(#_Linear5);fill-rule:nonzero;"/>
        </g>
        <g transform="matrix(2.08471,0,0,2.08471,964.303,338.92)">
            <path d="M267.049,227.242L269.531,234.281L269.629,234.281L272.112,227.242L273.173,227.242L270.103,235.604L269.058,235.604L265.987,227.242L267.049,227.242ZM274.345,235.604L274.345,229.332L275.309,229.332L275.309,235.604L274.345,235.604ZM274.835,228.287C274.654,228.29 274.479,228.221 274.349,228.095C274.22,227.977 274.147,227.809 274.149,227.634C274.149,227.454 274.216,227.3 274.349,227.172C274.479,227.046 274.654,226.977 274.835,226.98C275.023,226.98 275.183,227.044 275.317,227.172C275.448,227.289 275.523,227.458 275.521,227.634C275.523,227.81 275.448,227.978 275.317,228.095C275.189,228.221 275.015,228.29 274.835,228.287ZM277.073,235.604L277.073,229.332L278.004,229.332L278.004,230.279L278.07,230.279C278.184,229.969 278.391,229.717 278.69,229.524C278.99,229.331 279.327,229.234 279.703,229.234C279.774,229.234 279.862,229.236 279.968,229.238C280.074,229.241 280.155,229.245 280.209,229.251L280.209,230.23C280.135,230.215 280.06,230.203 279.985,230.194C279.865,230.174 279.743,230.165 279.621,230.165C279.316,230.165 279.044,230.229 278.805,230.357C278.327,230.601 278.028,231.098 278.037,231.635L278.037,235.604L277.073,235.604ZM284.472,229.332L284.472,230.149L281.222,230.149L281.222,229.332L284.472,229.332ZM282.169,227.83L283.133,227.83L283.133,233.807C283.133,234.079 283.172,234.283 283.251,234.42C283.32,234.542 283.43,234.637 283.561,234.689C283.689,234.733 283.824,234.754 283.966,234.754C284.072,234.754 284.159,234.749 284.227,234.738L284.39,234.705L284.586,235.571C284.497,235.602 284.406,235.626 284.313,235.644C284.167,235.675 284.017,235.688 283.868,235.685C283.595,235.685 283.329,235.627 283.067,235.51C282.808,235.392 282.586,235.207 282.422,234.975C282.253,234.735 282.169,234.433 282.169,234.068L282.169,227.83ZM289.874,233.039L289.874,229.332L290.837,229.332L290.837,235.604L289.874,235.604L289.874,234.542L289.808,234.542C289.654,234.868 289.418,235.149 289.122,235.355C288.812,235.575 288.42,235.685 287.946,235.685C287.581,235.692 287.221,235.603 286.901,235.428C286.588,235.245 286.338,234.972 286.183,234.644C286.008,234.293 285.921,233.851 285.921,233.317L285.921,229.332L286.885,229.332L286.885,233.252C286.885,233.709 287.013,234.074 287.269,234.346C287.527,234.618 287.857,234.754 288.257,234.754C288.496,234.754 288.74,234.693 288.988,234.571C289.238,234.448 289.448,234.26 289.616,234.007C289.788,233.754 289.874,233.431 289.874,233.039ZM294.447,235.751C294.05,235.751 293.689,235.676 293.365,235.526C293.052,235.383 292.785,235.155 292.594,234.869C292.403,234.58 292.308,234.232 292.308,233.823C292.308,233.464 292.379,233.173 292.52,232.95C292.662,232.724 292.851,232.547 293.088,232.419C293.325,232.291 293.586,232.196 293.872,232.133C294.16,232.068 294.45,232.016 294.741,231.978C295.122,231.929 295.431,231.892 295.668,231.868C295.908,231.84 296.082,231.796 296.191,231.733C296.302,231.67 296.358,231.561 296.358,231.406L296.358,231.374C296.358,230.971 296.248,230.658 296.028,230.435C295.81,230.211 295.479,230.1 295.035,230.1C294.575,230.1 294.215,230.2 293.953,230.402C293.692,230.603 293.508,230.818 293.402,231.047L292.488,230.72C292.651,230.339 292.869,230.043 293.141,229.83C293.416,229.615 293.715,229.466 294.039,229.381C294.366,229.294 294.687,229.251 295.003,229.251C295.204,229.251 295.436,229.275 295.697,229.324C295.961,229.37 296.215,229.467 296.46,229.614C296.708,229.761 296.914,229.983 297.077,230.279C297.24,230.576 297.322,230.974 297.322,231.472L297.322,235.604L296.358,235.604L296.358,234.754L296.309,234.754C296.225,234.916 296.115,235.064 295.983,235.191C295.807,235.361 295.601,235.495 295.374,235.587C295.121,235.696 294.812,235.751 294.447,235.751ZM294.594,234.885C294.975,234.885 295.297,234.81 295.558,234.66C296.046,234.397 296.353,233.887 296.358,233.333L296.358,232.452C296.317,232.501 296.228,232.545 296.089,232.586C295.933,232.628 295.775,232.662 295.615,232.688C295.308,232.736 295.001,232.777 294.692,232.811C294.442,232.844 294.208,232.897 293.99,232.97C293.791,233.031 293.611,233.142 293.468,233.293C293.337,233.434 293.272,233.627 293.272,233.872C293.272,234.207 293.395,234.46 293.643,234.632C293.894,234.801 294.211,234.885 294.594,234.885ZM300.044,227.242L300.044,235.604L299.081,235.604L299.081,227.242L300.044,227.242Z" style="fill:white;fill-rule:nonzero;"/>
        </g>
        <g transform="matrix(2.08471,0,0,2.08471,964.303,338.92)">
            <g transform="matrix(1.65812,0,0,1.65812,-178.104,-339.059)">
                <g transform="matrix(0.479682,0,0,0.479682,121.244,339.959)">
                    <rect x="0" y="0" width="9.756" height="29.269" style="fill:rgb(244,244,244);"/>
                </g>
                <g transform="matrix(0.479682,0,0,0.479682,121.244,339.947)">
                    <path d="M19.508,19.536L27.313,19.536C28.39,19.536 29.264,20.409 29.264,21.487L29.264,27.341C29.264,28.418 28.39,29.292 27.313,29.292L21.459,29.292C20.381,29.292 19.508,28.418 19.508,27.341L19.508,19.536Z" style="fill:rgb(255,200,87);fill-rule:nonzero;"/>
                </g>
                <g transform="matrix(0.479682,0,0,0.479682,121.244,339.947)">
                    <clipPath id="_clip6">
                        <rect x="0.005" y="0.026" width="29.268" height="9.756"/>
                    </clipPath>
                    <g clip-path="url(#_clip6)">
                        <g transform="matrix(-3.82857e-16,1,-1,-3.82857e-16,29.2734,0.0263672)">
                            <rect x="0" y="0" width="9.756" height="29.268" style="fill:rgb(244,244,244);fill-opacity:0.7;"/>
                        </g>
                        <g transform="matrix(-3.82857e-16,1,-1,-3.82857e-16,19.5225,0.0273438)">
                            <rect x="0" y="0" width="9.756" height="19.512" style="fill:rgb(244,244,244);"/>
                        </g>
                    </g>
                </g>
                <g transform="matrix(-0.479682,3.67299e-16,-3.67299e-16,-0.479682,130.602,349.318)">
                    <rect x="0" y="0" width="9.756" height="19.513" style="fill:rgb(244,244,244);fill-opacity:0.7;"/>
                </g>
                <g transform="matrix(0.479682,0,0,0.479682,121.244,339.947)">
                    <path d="M45.385,0.238L55.359,0.238C56.903,0.238 58.302,0.563 59.557,1.212C60.826,1.846 61.836,2.784 62.586,4.025C63.351,5.251 63.733,6.751 63.733,8.525C63.733,10.285 63.38,11.742 62.673,12.896C61.98,14.05 61.144,14.923 60.163,15.514C59.182,16.091 58.273,16.409 57.437,16.466L64.512,28.8L60.314,28.8L53.693,16.726L49.085,16.726L49.085,28.8L45.385,28.8L45.385,0.238ZM49.085,13.978L54.061,13.978C55.763,13.978 57.17,13.552 58.28,12.701C59.391,11.85 59.946,10.487 59.946,8.612C59.946,6.737 59.391,5.388 58.28,4.566C57.184,3.743 55.785,3.332 54.083,3.332L49.085,3.332L49.085,13.978Z" style="fill:rgb(244,244,244);fill-rule:nonzero;"/>
                </g>
                <g transform="matrix(0.479682,0,0,0.479682,121.244,339.947)">
                    <path d="M83.561,28.8L83.561,25.338C83.445,25.698 83.106,26.196 82.544,26.831C81.995,27.465 81.238,28.042 80.272,28.562C79.32,29.067 78.195,29.319 76.896,29.319C75.252,29.319 73.759,28.93 72.417,28.151C71.09,27.372 70.03,26.283 69.237,24.883C68.458,23.47 68.068,21.818 68.068,19.928C68.068,18.039 68.458,16.394 69.237,14.995C70.03,13.581 71.09,12.485 72.417,11.706C73.759,10.913 75.252,10.516 76.896,10.516C78.18,10.516 79.291,10.747 80.228,11.208C81.18,11.67 81.938,12.204 82.5,12.81C83.077,13.415 83.416,13.935 83.517,14.367L83.517,11.035L87.239,11.035L87.239,28.8L83.561,28.8ZM71.79,19.928C71.79,21.212 72.071,22.323 72.634,23.261C73.196,24.198 73.925,24.927 74.819,25.446C75.728,25.951 76.694,26.203 77.719,26.203C78.815,26.203 79.796,25.944 80.661,25.424C81.527,24.905 82.212,24.177 82.717,23.239C83.222,22.287 83.474,21.183 83.474,19.928C83.474,18.673 83.222,17.577 82.717,16.639C82.212,15.687 81.527,14.952 80.661,14.432C79.796,13.899 78.815,13.632 77.719,13.632C76.694,13.632 75.728,13.891 74.819,14.411C73.925,14.93 73.196,15.659 72.634,16.596C72.071,17.534 71.79,18.645 71.79,19.928Z" style="fill:rgb(244,244,244);fill-rule:nonzero;"/>
                </g>
                <g transform="matrix(0.479682,0,0,0.479682,121.244,339.947)">
                    <path d="M92.681,28.8L92.681,11.035L96.445,11.035L96.445,28.8L92.681,28.8ZM94.606,4.955C93.928,4.955 93.344,4.717 92.854,4.241C92.378,3.751 92.14,3.166 92.14,2.488C92.14,1.81 92.378,1.226 92.854,0.736C93.344,0.245 93.928,0 94.606,0C95.053,0 95.464,0.115 95.84,0.346C96.229,0.577 96.539,0.88 96.77,1.255C97.001,1.616 97.116,2.027 97.116,2.488C97.116,3.166 96.871,3.751 96.38,4.241C95.89,4.717 95.299,4.955 94.606,4.955Z" style="fill:rgb(244,244,244);fill-rule:nonzero;"/>
                </g>
                <g transform="matrix(0.479682,0,0,0.479682,121.244,339.947)">
                    <path d="M101.508,11.035L117,11.035L106.376,25.944L116.567,25.944L116.567,28.8L100.296,28.8L110.92,13.87L101.508,13.87L101.508,11.035Z" style="fill:rgb(244,244,244);fill-rule:nonzero;"/>
                </g>
            </g>
        </g>
        <g transform="matrix(2.08471,0,0,2.08471,964.303,338.92)">
            <path d="M320,454.689C320,461.203 314.693,466.482 308.148,466.482L11.852,466.482C5.307,466.482 0,461.201 0,454.689L0,277.793C0,271.281 5.307,266 11.852,266L308.148,266C314.693,266 320,271.281 320,277.793L320,454.689Z" style="fill:url(#_Linear7);fill-rule:nonzero;"/>
        </g>
        <g transform="matrix(2.08471,0,0,2.08471,964.303,338.92)">
            <g transform="matrix(1.65812,0,0,1.65812,-178.104,-274.302)">
                <g transform="matrix(0.479682,0,0,0.479682,121.244,339.959)">
                    <rect x="0" y="0" width="9.756" height="29.269" style="fill:rgb(244,244,244);"/>
                </g>
                <g transform="matrix(0.479682,0,0,0.479682,121.244,339.947)">
                    <path d="M19.508,19.536L27.313,19.536C28.39,19.536 29.264,20.409 29.264,21.487L29.264,27.341C29.264,28.418 28.39,29.292 27.313,29.292L21.459,29.292C20.381,29.292 19.508,28.418 19.508,27.341L19.508,19.536Z" style="fill:rgb(255,200,87);fill-rule:nonzero;"/>
                </g>
                <g transform="matrix(0.479682,0,0,0.479682,121.244,339.947)">
                    <clipPath id="_clip8">
                        <rect x="0.005" y="0.026" width="29.268" height="9.756"/>
                    </clipPath>
                    <g clip-path="url(#_clip8)">
                        <g transform="matrix(-3.82857e-16,1,-1,-3.82857e-16,29.2734,0.0263672)">
                            <rect x="0" y="0" width="9.756" height="29.268" style="fill:rgb(244,244,244);fill-opacity:0.7;"/>
                        </g>
                        <g transform="matrix(-3.82857e-16,1,-1,-3.82857e-16,19.5225,0.0273438)">
                            <rect x="0" y="0" width="9.756" height="19.512" style="fill:rgb(244,244,244);"/>
                        </g>
                    </g>
                </g>
                <g transform="matrix(-0.479682,3.67299e-16,-3.67299e-16,-0.479682,130.602,349.318)">
                    <rect x="0" y="0" width="9.756" height="19.513" style="fill:rgb(244,244,244);fill-opacity:0.7;"/>
                </g>
                <g transform="matrix(0.479682,0,0,0.479682,121.244,339.947)">
                    <path d="M45.385,0.238L55.359,0.238C56.903,0.238 58.302,0.563 59.557,1.212C60.826,1.846 61.836,2.784 62.586,4.025C63.351,5.251 63.733,6.751 63.733,8.525C63.733,10.285 63.38,11.742 62.673,12.896C61.98,14.05 61.144,14.923 60.163,15.514C59.182,16.091 58.273,16.409 57.437,16.466L64.512,28.8L60.314,28.8L53.693,16.726L49.085,16.726L49.085,28.8L45.385,28.8L45.385,0.238ZM49.085,13.978L54.061,13.978C55.763,13.978 57.17,13.552 58.28,12.701C59.391,11.85 59.946,10.487 59.946,8.612C59.946,6.737 59.391,5.388 58.28,4.566C57.184,3.743 55.785,3.332 54.083,3.332L49.085,3.332L49.085,13.978Z" style="fill:rgb(244,244,244);fill-rule:nonzero;"/>
                </g>
                <g transform="matrix(0.479682,0,0,0.479682,121.244,339.947)">
                    <path d="M83.561,28.8L83.561,25.338C83.445,25.698 83.106,26.196 82.544,26.831C81.995,27.465 81.238,28.042 80.272,28.562C79.32,29.067 78.195,29.319 76.896,29.319C75.252,29.319 73.759,28.93 72.417,28.151C71.09,27.372 70.03,26.283 69.237,24.883C68.458,23.47 68.068,21.818 68.068,19.928C68.068,18.039 68.458,16.394 69.237,14.995C70.03,13.581 71.09,12.485 72.417,11.706C73.759,10.913 75.252,10.516 76.896,10.516C78.18,10.516 79.291,10.747 80.228,11.208C81.18,11.67 81.938,12.204 82.5,12.81C83.077,13.415 83.416,13.935 83.517,14.367L83.517,11.035L87.239,11.035L87.239,28.8L83.561,28.8ZM71.79,19.928C71.79,21.212 72.071,22.323 72.634,23.261C73.196,24.198 73.925,24.927 74.819,25.446C75.728,25.951 76.694,26.203 77.719,26.203C78.815,26.203 79.796,25.944 80.661,25.424C81.527,24.905 82.212,24.177 82.717,23.239C83.222,22.287 83.474,21.183 83.474,19.928C83.474,18.673 83.222,17.577 82.717,16.639C82.212,15.687 81.527,14.952 80.661,14.432C79.796,13.899 78.815,13.632 77.719,13.632C76.694,13.632 75.728,13.891 74.819,14.411C73.925,14.93 73.196,15.659 72.634,16.596C72.071,17.534 71.79,18.645 71.79,19.928Z" style="fill:rgb(244,244,244);fill-rule:nonzero;"/>
                </g>
                <g transform="matrix(0.479682,0,0,0.479682,121.244,339.947)">
                    <path d="M92.681,28.8L92.681,11.035L96.445,11.035L96.445,28.8L92.681,28.8ZM94.606,4.955C93.928,4.955 93.344,4.717 92.854,4.241C92.378,3.751 92.14,3.166 92.14,2.488C92.14,1.81 92.378,1.226 92.854,0.736C93.344,0.245 93.928,0 94.606,0C95.053,0 95.464,0.115 95.84,0.346C96.229,0.577 96.539,0.88 96.77,1.255C97.001,1.616 97.116,2.027 97.116,2.488C97.116,3.166 96.871,3.751 96.38,4.241C95.89,4.717 95.299,4.955 94.606,4.955Z" style="fill:rgb(244,244,244);fill-rule:nonzero;"/>
                </g>
                <g transform="matrix(0.479682,0,0,0.479682,121.244,339.947)">
                    <path d="M101.508,11.035L117,11.035L106.376,25.944L116.567,25.944L116.567,28.8L100.296,28.8L110.92,13.87L101.508,13.87L101.508,11.035Z" style="fill:rgb(244,244,244);fill-rule:nonzero;"/>
                </g>
            </g>
        </g>
        <g transform="matrix(2.08471,0,0,2.08471,964.303,338.92)">
            <rect x="257.2" y="409.851" width="18.238" height="32.517" style="fill:rgb(234,86,13);fill-rule:nonzero;"/>
        </g>
        <g transform="matrix(2.08471,0,0,2.08471,964.303,338.92)">
            <path d="M258.358,426.109C258.358,419.512 261.472,413.638 266.32,409.851C262.643,406.978 258.106,405.421 253.44,405.431C241.93,405.431 232.598,414.689 232.598,426.111C232.598,437.532 241.93,446.791 253.44,446.791C258.303,446.791 262.776,445.138 266.32,442.37C261.472,438.582 258.358,432.707 258.358,426.109Z" style="fill:rgb(227,6,19);fill-rule:nonzero;"/>
        </g>
        <g transform="matrix(2.08471,0,0,2.08471,964.303,338.92)">
            <path d="M300.044,426.109C300.044,437.53 290.712,446.788 279.202,446.788C274.536,446.797 269.999,445.24 266.322,442.368C271.17,438.582 274.283,432.707 274.283,426.111C274.283,419.515 271.17,413.64 266.322,409.853C269.999,406.98 274.536,405.423 279.202,405.433C290.712,405.431 300.044,414.69 300.044,426.109Z" style="fill:rgb(245,158,0);fill-rule:nonzero;"/>
        </g>
        <g transform="matrix(2.08471,0,0,2.08471,964.303,338.92)">
            <g transform="matrix(1,0,0,1,19.403,0)">
                <path d="M247.981,293.124L250.463,300.163L250.561,300.163L253.044,293.124L254.105,293.124L251.035,301.486L249.99,301.486L246.919,293.124L247.981,293.124ZM255.277,301.486L255.277,295.215L256.241,295.215L256.241,301.486L255.277,301.486ZM255.767,294.169C255.586,294.172 255.411,294.103 255.281,293.977C255.152,293.859 255.079,293.691 255.081,293.516C255.081,293.336 255.148,293.183 255.281,293.055C255.411,292.929 255.586,292.86 255.767,292.863C255.947,292.86 256.121,292.929 256.249,293.055C256.38,293.172 256.455,293.34 256.453,293.516C256.455,293.692 256.38,293.86 256.249,293.977C256.121,294.103 255.947,294.172 255.767,294.169ZM258.006,301.486L258.006,295.215L258.937,295.215L258.937,296.162L259.002,296.162C259.116,295.851 259.323,295.6 259.622,295.406C259.924,295.212 260.276,295.112 260.635,295.117C260.804,295.118 260.973,295.123 261.141,295.133L261.141,296.113C261.067,296.097 260.992,296.085 260.917,296.076C260.797,296.056 260.675,296.047 260.553,296.047C260.249,296.047 259.976,296.111 259.737,296.239C259.259,296.483 258.96,296.98 258.969,297.517L258.969,301.486L258.006,301.486ZM265.404,295.215L265.404,296.031L262.154,296.031L262.154,295.215L265.404,295.215ZM263.101,293.712L264.065,293.712L264.065,299.689C264.065,299.962 264.104,300.166 264.183,300.302C264.252,300.424 264.362,300.519 264.493,300.571C264.621,300.615 264.756,300.637 264.898,300.637C265.004,300.637 265.091,300.631 265.159,300.62L265.322,300.588L265.518,301.453C265.288,301.534 265.044,301.573 264.8,301.568C264.527,301.568 264.261,301.509 263.999,301.392C263.74,301.274 263.517,301.09 263.354,300.857C263.186,300.618 263.101,300.315 263.101,299.951L263.101,293.712ZM270.806,298.922L270.806,295.215L271.769,295.215L271.769,301.486L270.806,301.486L270.806,300.424L270.74,300.424C270.593,300.743 270.365,301.014 270.054,301.237C269.744,301.457 269.352,301.568 268.879,301.568C268.487,301.568 268.138,301.482 267.833,301.31C267.52,301.127 267.27,300.854 267.115,300.526C266.94,300.175 266.853,299.733 266.853,299.199L266.853,295.215L267.817,295.215L267.817,299.134C267.817,299.591 267.945,299.956 268.201,300.228C268.459,300.501 268.789,300.637 269.189,300.637C269.428,300.637 269.672,300.575 269.92,300.453C270.17,300.33 270.38,300.143 270.548,299.889C270.72,299.636 270.806,299.314 270.806,298.922ZM275.38,301.633C274.982,301.633 274.622,301.558 274.298,301.408C273.985,301.265 273.717,301.038 273.526,300.751C273.335,300.462 273.24,300.114 273.24,299.706C273.24,299.346 273.311,299.055 273.452,298.832C273.594,298.606 273.783,298.429 274.02,298.301C274.257,298.173 274.518,298.078 274.804,298.015C275.092,297.95 275.382,297.898 275.674,297.86C276.055,297.811 276.364,297.775 276.6,297.75C276.84,297.723 277.014,297.678 277.123,297.615C277.235,297.553 277.29,297.444 277.29,297.289L277.29,297.256C277.29,296.853 277.18,296.54 276.96,296.317C276.742,296.094 276.411,295.982 275.968,295.982C275.508,295.982 275.147,296.083 274.886,296.284C274.624,296.486 274.44,296.701 274.334,296.929L273.42,296.603C273.583,296.222 273.801,295.925 274.073,295.713C274.348,295.498 274.647,295.348 274.971,295.264C275.298,295.176 275.619,295.133 275.935,295.133C276.136,295.133 276.368,295.157 276.629,295.206C276.893,295.253 277.147,295.349 277.392,295.496C277.654,295.658 277.868,295.888 278.009,296.162C278.172,296.458 278.254,296.856 278.254,297.354L278.254,301.486L277.29,301.486L277.29,300.637L277.241,300.637C277.156,300.799 277.046,300.947 276.915,301.074C276.74,301.244 276.533,301.379 276.306,301.47C276.053,301.578 275.744,301.633 275.38,301.633ZM275.527,300.767C275.908,300.767 276.229,300.692 276.49,300.543C276.977,300.279 277.284,299.77 277.29,299.216L277.29,298.334C277.25,298.383 277.16,298.428 277.021,298.469C276.865,298.511 276.707,298.545 276.547,298.571C276.24,298.618 275.933,298.658 275.625,298.693C275.386,298.723 275.151,298.777 274.922,298.852C274.723,298.913 274.543,299.024 274.4,299.175C274.269,299.316 274.204,299.51 274.204,299.755C274.204,300.09 274.328,300.343 274.575,300.514C274.826,300.683 275.143,300.767 275.527,300.767ZM280.976,293.124L280.976,301.486L280.013,301.486L280.013,293.124L280.976,293.124Z" style="fill:white;fill-rule:nonzero;"/>
            </g>
        </g>
    </g>
    <defs>
        <linearGradient id="_Linear1" x1="0" y1="0" x2="1" y2="0" gradientUnits="userSpaceOnUse" gradientTransform="matrix(-319.178,-188.985,188.985,-319.178,320.168,258.277)"><stop offset="0" style="stop-color:rgb(104,217,207);stop-opacity:1"/><stop offset="1" style="stop-color:rgb(159,129,226);stop-opacity:1"/></linearGradient>
        <linearGradient id="_Linear2" x1="0" y1="0" x2="1" y2="0" gradientUnits="userSpaceOnUse" gradientTransform="matrix(-319.095,-201.83,201.83,-319.095,320.168,333.4)"><stop offset="0" style="stop-color:rgb(218,224,147);stop-opacity:1"/><stop offset="1" style="stop-color:rgb(55,162,126);stop-opacity:1"/></linearGradient>
        <linearGradient id="_Linear5" x1="0" y1="0" x2="1" y2="0" gradientUnits="userSpaceOnUse" gradientTransform="matrix(-319.095,-201.83,201.83,-319.095,320.168,402.4)"><stop offset="0" style="stop-color:rgb(98,198,174);stop-opacity:1"/><stop offset="1" style="stop-color:rgb(20,74,137);stop-opacity:1"/></linearGradient>
        <linearGradient id="_Linear7" x1="0" y1="0" x2="1" y2="0" gradientUnits="userSpaceOnUse" gradientTransform="matrix(-319.095,-201.83,201.83,-319.095,320.168,466.4)"><stop offset="0" style="stop-color:rgb(60,40,75);stop-opacity:1"/><stop offset="0.53" style="stop-color:rgb(72,17,108);stop-opacity:1"/><stop offset="1" style="stop-color:rgb(77,9,120);stop-opacity:1"/></linearGradient>
    </defs>
</svg>
