<?xml version="1.0" encoding="UTF-8" standalone="no"?>
<!DOCTYPE svg PUBLIC "-//W3C//DTD SVG 1.1//EN" "http://www.w3.org/Graphics/SVG/1.1/DTD/svg11.dtd">
<svg width="100%" height="100%" viewBox="0 0 194 49" version="1.1" xmlns="http://www.w3.org/2000/svg" xmlns:xlink="http://www.w3.org/1999/xlink" xml:space="preserve" xmlns:serif="http://www.serif.com/" style="fill-rule:evenodd;clip-rule:evenodd;stroke-linejoin:round;stroke-miterlimit:2;">
    <g transform="matrix(3.4567,0,0,3.4567,-419.102,-1175.1)">
        <g>
            <g>
                <g transform="matrix(0.479682,0,0,0.479682,121.244,339.959)">
                    <rect x="0" y="0" width="9.756" height="29.269" style="fill:rgb(75,0,130);"/>
                </g>
                <g transform="matrix(2.93721e-17,0.479682,-0.319642,1.95724e-17,130.602,339.947)">
                    <rect x="0" y="0" width="9.756" height="29.269" style="fill:rgb(75,0,130);"/>
                </g>
                <g transform="matrix(2.93721e-17,0.479682,0.160024,-9.79862e-18,130.602,339.947)">
                    <g opacity="0.5">
                        <rect x="0" y="0" width="9.756" height="29.269" style="fill:rgb(132,81,169);"/>
                    </g>
                </g>
                <g transform="matrix(2.93008e-17,0.480846,0.160024,-9.84616e-18,125.918,344.627)">
                    <g opacity="0.5">
                        <rect x="0" y="0" width="9.756" height="29.269" style="fill:rgb(132,81,169);"/>
                    </g>
                </g>
                <g transform="matrix(0.479682,0,0,0.479682,121.244,339.947)">
                    <path d="M19.508,19.536L27.313,19.536C28.39,19.536 29.264,20.409 29.264,21.487L29.264,27.341C29.264,28.418 28.39,29.292 27.313,29.292L21.459,29.292C20.381,29.292 19.508,28.418 19.508,27.341L19.508,19.536Z" style="fill:rgb(255,200,87);fill-rule:nonzero;"/>
                </g>
                <g transform="matrix(0.479682,0,0,0.479682,121.244,339.947)">
                    <path d="M45.385,0.238L55.359,0.238C56.903,0.238 58.302,0.563 59.557,1.212C60.826,1.846 61.836,2.784 62.586,4.025C63.351,5.251 63.733,6.751 63.733,8.525C63.733,10.285 63.38,11.742 62.673,12.896C61.98,14.05 61.144,14.923 60.163,15.514C59.182,16.091 58.273,16.409 57.437,16.466L64.512,28.8L60.314,28.8L53.693,16.726L49.085,16.726L49.085,28.8L45.385,28.8L45.385,0.238ZM49.085,13.978L54.061,13.978C55.763,13.978 57.17,13.552 58.28,12.701C59.391,11.85 59.946,10.487 59.946,8.612C59.946,6.737 59.391,5.388 58.28,4.566C57.184,3.743 55.785,3.332 54.083,3.332L49.085,3.332L49.085,13.978Z" style="fill:rgb(40,2,69);fill-rule:nonzero;"/>
                </g>
                <g transform="matrix(0.479682,0,0,0.479682,121.244,339.947)">
                    <path d="M83.561,28.8L83.561,25.338C83.445,25.698 83.106,26.196 82.544,26.831C81.995,27.465 81.238,28.042 80.272,28.562C79.32,29.067 78.195,29.319 76.896,29.319C75.252,29.319 73.759,28.93 72.417,28.151C71.09,27.372 70.03,26.283 69.237,24.883C68.458,23.47 68.068,21.818 68.068,19.928C68.068,18.039 68.458,16.394 69.237,14.995C70.03,13.581 71.09,12.485 72.417,11.706C73.759,10.913 75.252,10.516 76.896,10.516C78.18,10.516 79.291,10.747 80.228,11.208C81.18,11.67 81.938,12.204 82.5,12.81C83.077,13.415 83.416,13.935 83.517,14.367L83.517,11.035L87.239,11.035L87.239,28.8L83.561,28.8ZM71.79,19.928C71.79,21.212 72.071,22.323 72.634,23.261C73.196,24.198 73.925,24.927 74.819,25.446C75.728,25.951 76.694,26.203 77.719,26.203C78.815,26.203 79.796,25.944 80.661,25.424C81.527,24.905 82.212,24.177 82.717,23.239C83.222,22.287 83.474,21.183 83.474,19.928C83.474,18.673 83.222,17.577 82.717,16.639C82.212,15.687 81.527,14.952 80.661,14.432C79.796,13.899 78.815,13.632 77.719,13.632C76.694,13.632 75.728,13.891 74.819,14.411C73.925,14.93 73.196,15.659 72.634,16.596C72.071,17.534 71.79,18.645 71.79,19.928Z" style="fill:rgb(40,2,69);fill-rule:nonzero;"/>
                </g>
                <g transform="matrix(0.479682,0,0,0.479682,121.244,339.947)">
                    <path d="M92.681,28.8L92.681,11.035L96.445,11.035L96.445,28.8L92.681,28.8ZM94.606,4.955C93.928,4.955 93.344,4.717 92.854,4.241C92.378,3.751 92.14,3.166 92.14,2.488C92.14,1.81 92.378,1.226 92.854,0.736C93.344,0.245 93.928,0 94.606,0C95.053,0 95.464,0.115 95.84,0.346C96.229,0.577 96.539,0.88 96.77,1.255C97.001,1.616 97.116,2.027 97.116,2.488C97.116,3.166 96.871,3.751 96.38,4.241C95.89,4.717 95.299,4.955 94.606,4.955Z" style="fill:rgb(40,2,69);fill-rule:nonzero;"/>
                </g>
                <g transform="matrix(0.479682,0,0,0.479682,121.244,339.947)">
                    <path d="M101.508,11.035L117,11.035L106.376,25.944L116.567,25.944L116.567,28.8L100.296,28.8L110.92,13.87L101.508,13.87L101.508,11.035Z" style="fill:rgb(40,2,69);fill-rule:nonzero;"/>
                </g>
            </g>
        </g>
    </g>
</svg>
