<?xml version="1.0" encoding="UTF-8" standalone="no"?>
<!DOCTYPE svg PUBLIC "-//W3C//DTD SVG 1.1//EN" "http://www.w3.org/Graphics/SVG/1.1/DTD/svg11.dtd">
<svg width="100%" height="100%" viewBox="0 0 424 228" version="1.1" xmlns="http://www.w3.org/2000/svg" xmlns:xlink="http://www.w3.org/1999/xlink" xml:space="preserve" xmlns:serif="http://www.serif.com/" style="fill-rule:evenodd;clip-rule:evenodd;">
    <g transform="matrix(0.944102,-0.329653,0.757588,0.652733,209.747,153.06)">
        <path d="M242.642,15.297L242.642,142.636C242.642,151.079 236.706,157.933 229.395,157.933L13.247,157.933C5.936,157.933 0,151.079 0,142.636L0,15.297C0,6.854 5.936,0 13.247,0L229.395,0C236.706,0 242.642,6.854 242.642,15.297Z" style="fill:rgb(108,111,191);"/>
    </g>
    <g transform="matrix(0.944102,-0.329653,0.757589,0.652733,271.423,178.185)">
        <path d="M73.062,8.585C73.062,13.127 69.869,16.814 65.936,16.814L9.004,16.814C5.071,16.814 1.878,13.127 1.878,8.585C1.878,4.044 5.071,0.357 9.004,0.357L65.936,0.357C69.869,0.357 73.062,4.044 73.062,8.585Z" style="fill:rgb(50,52,116);stroke:rgb(153,156,212);stroke-width:2.21px;"/>
    </g>
    <path d="M321.55,186.125C240.785,64.749 91.935,134.518 72.389,232.963L175.595,253.454C209.324,144.284 293.411,170.01 316.049,189.55L321.55,186.125Z" style="fill:rgb(243,229,157);fill-rule:nonzero;"/>
    <path d="M309.343,174.218C249.271,133.132 180.416,168.027 168.552,227.782L226.513,239.398C228.034,189.238 261.921,167.819 305.122,177.262L309.343,174.218Z" style="fill:rgb(174,215,229);fill-rule:nonzero;"/>
    <path d="M323.399,194.898C233.113,30.412 54.369,123.259 10.412,229.308L98.544,246.806C152.077,135.018 263.861,124.452 319.262,197.523L323.399,194.898Z" style="fill:rgb(250,181,181);fill-rule:nonzero;"/>
    <g>
        <clipPath id="_clip1">
            <path d="M116.377,219.072L42.851,129.081L132.842,55.555L206.368,145.546L116.377,219.072Z"/>
        </clipPath>
        <g clip-path="url(#_clip1)">
            <path d="M89.773,168.24C74.626,154.725 75.684,128.821 92.137,110.382C108.589,91.942 134.205,87.949 149.352,101.463C164.499,114.978 163.441,140.882 146.989,159.322C130.536,177.762 104.92,181.754 89.773,168.24Z" style="fill:rgb(81,131,90);fill-rule:nonzero;"/>
            <path d="M95.708,113.568C80.4,130.725 80.41,153.471 92.959,164.669C105.509,175.866 128.11,173.292 143.417,156.135C158.725,138.979 158.716,116.232 146.166,105.035C133.616,93.838 111.015,96.411 95.708,113.568ZM92.137,110.382C75.684,128.821 74.626,154.725 89.773,168.24C104.92,181.754 130.536,177.762 146.989,159.322C163.441,140.882 164.499,114.978 149.352,101.463C134.205,87.949 108.589,91.942 92.137,110.382Z" style="fill:rgb(81,131,90);"/>
            <path d="M98.31,173.641C83.163,160.127 84.222,134.223 100.674,115.783C117.126,97.343 142.743,93.35 157.89,106.865C173.037,120.379 171.978,146.283 155.526,164.723C139.074,183.163 113.457,187.156 98.31,173.641Z" style="fill:white;fill-rule:nonzero;"/>
            <path d="M104.245,118.969C88.938,136.126 88.947,158.873 101.497,170.07C114.046,181.267 136.647,178.693 151.955,161.537C167.262,144.38 167.253,121.633 154.703,110.436C142.154,99.239 119.553,101.813 104.245,118.969ZM100.674,115.783C84.222,134.223 83.163,160.127 98.31,173.641C113.457,187.156 139.074,183.163 155.526,164.723C171.978,146.283 173.037,120.379 157.89,106.865C142.743,93.35 117.126,97.343 100.674,115.783Z" style="fill:rgb(81,131,90);"/>
            <g id="_11" transform="matrix(0.0957681,-0.0477812,0.0477812,0.0957681,93.2666,130.328)">
                <path d="M401,235.2L401,206.25L365.9,206.25L365.9,124.3L302.58,124.3L302.58,206.25L255.9,206.25L209.41,124.3L145.91,124.3L145.91,206.25L110.99,206.25L110.99,235.2L145.91,235.2L145.91,265.95L110.99,265.95L110.99,294.9L145.91,294.9L145.91,387.71L209.41,387.71L209.41,294.9L249.75,294.9L302.58,387.71L365.9,387.71L365.9,294.9L401,294.9L401,265.95L365.9,265.95L365.9,235.2L401,235.2ZM209.42,265.95L209.42,235.2L215.93,235.2L233.3,265.95L209.42,265.95ZM302.59,265.95L289.93,265.95L272.38,235.2L302.59,235.2L302.59,265.95Z" style="fill:rgb(81,131,90);fill-rule:nonzero;"/>
            </g>
        </g>
    </g>
    <g>
        <clipPath id="_clip2">
            <path d="M237.305,173.794L186.485,130.005L230.274,79.185L281.094,122.974L237.305,173.794Z"/>
        </clipPath>
        <g clip-path="url(#_clip2)">
            <path d="M217.09,147.56C207.124,141.396 205.129,126.564 212.634,114.431C220.138,102.299 234.301,97.462 244.267,103.626C254.232,109.791 256.227,124.623 248.723,136.755C241.218,148.887 227.055,153.725 217.09,147.56Z" style="fill:rgb(81,131,90);fill-rule:nonzero;"/>
            <path d="M214.983,115.885C208.001,127.173 210.286,140.103 218.543,145.211C226.8,150.318 239.391,146.59 246.373,135.302C253.355,124.014 251.07,111.083 242.813,105.976C234.556,100.868 221.966,104.597 214.983,115.885ZM212.634,114.431C205.129,126.564 207.124,141.396 217.09,147.56C227.055,153.725 241.218,148.887 248.723,136.755C256.227,124.623 254.232,109.791 244.267,103.626C234.301,97.462 220.138,102.299 212.634,114.431Z" style="fill:rgb(81,131,90);"/>
            <path d="M222.486,149.775C212.52,143.611 210.525,128.778 218.03,116.646C225.534,104.514 239.697,99.677 249.662,105.841C259.628,112.006 261.623,126.838 254.118,138.97C246.614,151.102 232.451,155.94 222.486,149.775Z" style="fill:white;fill-rule:nonzero;"/>
            <path d="M220.379,118.1C213.397,129.388 215.682,142.318 223.939,147.426C232.196,152.533 244.786,148.804 251.769,137.517C258.751,126.229 256.466,113.298 248.209,108.191C239.952,103.083 227.362,106.812 220.379,118.1ZM218.03,116.646C210.525,128.778 212.52,143.611 222.486,149.775C232.451,155.94 246.614,151.102 254.118,138.97C261.623,126.838 259.628,112.006 249.662,105.841C239.697,99.677 225.534,104.514 218.03,116.646Z" style="fill:rgb(81,131,90);"/>
            <g id="_111" serif:id="_11" transform="matrix(0.0652877,-0.00964068,0.00964068,0.0652877,217.845,113.778)">
                <path d="M401,235.2L401,206.25L365.9,206.25L365.9,124.3L302.58,124.3L302.58,206.25L255.9,206.25L209.41,124.3L145.91,124.3L145.91,206.25L110.99,206.25L110.99,235.2L145.91,235.2L145.91,265.95L110.99,265.95L110.99,294.9L145.91,294.9L145.91,387.71L209.41,387.71L209.41,294.9L249.75,294.9L302.58,387.71L365.9,387.71L365.9,294.9L401,294.9L401,265.95L365.9,265.95L365.9,235.2L401,235.2ZM209.42,265.95L209.42,235.2L215.93,235.2L233.3,265.95L209.42,265.95ZM302.59,265.95L289.93,265.95L272.38,235.2L302.59,235.2L302.59,265.95Z" style="fill:rgb(81,131,90);fill-rule:nonzero;"/>
            </g>
        </g>
    </g>
    <g>
        <clipPath id="_clip3">
            <path d="M309.584,205.752L274.186,162.427L317.511,127.029L352.909,170.354L309.584,205.752Z"/>
        </clipPath>
        <g clip-path="url(#_clip3)">
            <path d="M296.789,181.282C289.497,174.775 290.006,162.304 297.927,153.427C305.848,144.549 318.181,142.627 325.473,149.133C332.765,155.64 332.256,168.111 324.335,176.988C316.414,185.866 304.082,187.788 296.789,181.282Z" style="fill:rgb(250,181,181);fill-rule:nonzero;"/>
            <path d="M299.647,154.961C292.277,163.221 292.281,174.172 298.323,179.562C304.365,184.953 315.246,183.714 322.616,175.454C329.985,167.194 329.981,156.243 323.939,150.853C317.897,145.462 307.016,146.701 299.647,154.961ZM297.927,153.427C290.006,162.304 289.497,174.775 296.789,181.282C304.082,187.788 316.414,185.866 324.335,176.988C332.256,168.111 332.765,155.64 325.473,149.133C318.181,142.627 305.848,144.549 297.927,153.427Z" style="fill:rgb(250,181,181);"/>
            <path d="M300.896,183.882C293.604,177.376 294.113,164.905 302.034,156.027C309.955,147.15 322.288,145.228 329.58,151.734C336.872,158.24 336.363,170.711 328.442,179.589C320.521,188.466 308.188,190.389 300.896,183.882Z" style="fill:white;fill-rule:nonzero;"/>
            <path d="M303.754,157.561C296.384,165.821 296.388,176.772 302.43,182.163C308.472,187.554 319.353,186.315 326.723,178.055C334.092,169.795 334.088,158.844 328.046,153.453C322.004,148.063 311.123,149.302 303.754,157.561ZM302.034,156.027C294.113,164.905 293.604,177.376 300.896,183.882C308.188,190.389 320.521,188.466 328.442,179.589C336.363,170.711 336.872,158.24 329.58,151.734C322.288,145.228 309.955,147.15 302.034,156.027Z" style="fill:rgb(250,181,181);"/>
            <g id="_112" serif:id="_11" transform="matrix(0.0489603,-0.00722971,0.00722971,0.0489603,300.893,157.046)">
                <path d="M401,235.2L401,206.25L365.9,206.25L365.9,124.3L302.58,124.3L302.58,206.25L255.9,206.25L209.41,124.3L145.91,124.3L145.91,206.25L110.99,206.25L110.99,235.2L145.91,235.2L145.91,265.95L110.99,265.95L110.99,294.9L145.91,294.9L145.91,387.71L209.41,387.71L209.41,294.9L249.75,294.9L302.58,387.71L365.9,387.71L365.9,294.9L401,294.9L401,265.95L365.9,265.95L365.9,235.2L401,235.2ZM209.42,265.95L209.42,235.2L215.93,235.2L233.3,265.95L209.42,265.95ZM302.59,265.95L289.93,265.95L272.38,235.2L302.59,235.2L302.59,265.95Z" style="fill:rgb(250,181,181);fill-rule:nonzero;"/>
            </g>
        </g>
    </g>
    <g transform="matrix(0.944102,-0.329653,-0.757589,-0.652733,319.169,208.849)">
        <rect x="0" y="0" width="53.652" height="35.586" style="fill:rgb(108,111,191);"/>
    </g>
    <path d="M344.144,168.183L292.611,186.077" style="fill:none;fill-rule:nonzero;stroke:rgb(153,156,212);stroke-width:1.88px;"/>
</svg>
