<svg xmlns="http://www.w3.org/2000/svg" x="0px" y="0px" width="100" height="100" viewBox="0 0 48 48" style="fill: #fff;">
<path d="M 13 6 C 11.458334 6 10.112148 6.6321334 9.2539062 7.5976562 C 8.3956641 8.5631791 8 9.7916668 8 11 C 8 12.208333 8.3956641 13.436821 9.2539062 14.402344 C 10.112148 15.367867 11.458334 16 13 16 C 14.541666 16 15.887852 15.367867 16.746094 14.402344 C 17.604336 13.436821 18 12.208333 18 11 C 18 9.7916668 17.604336 8.5631791 16.746094 7.5976562 C 15.887852 6.6321334 14.541666 6 13 6 z M 35 6 C 33.458334 6 32.112148 6.6321334 31.253906 7.5976562 C 30.395664 8.5631791 30 9.7916668 30 11 C 30 12.208333 30.395664 13.436821 31.253906 14.402344 C 32.112148 15.367867 33.458334 16 35 16 C 36.541666 16 37.887852 15.367867 38.746094 14.402344 C 39.604336 13.436821 40 12.208333 40 11 C 40 9.7916668 39.604336 8.5631791 38.746094 7.5976562 C 37.887852 6.6321334 36.541666 6 35 6 z M 13 9 C 13.791666 9 14.195482 9.2428665 14.503906 9.5898438 C 14.81233 9.9368209 15 10.458333 15 11 C 15 11.541667 14.81233 12.063179 14.503906 12.410156 C 14.195482 12.757133 13.791666 13 13 13 C 12.208334 13 11.804518 12.757133 11.496094 12.410156 C 11.18767 12.063179 11 11.541667 11 11 C 11 10.458333 11.18767 9.9368209 11.496094 9.5898438 C 11.804518 9.2428665 12.208334 9 13 9 z M 35 9 C 35.791666 9 36.195482 9.2428665 36.503906 9.5898438 C 36.81233 9.9368209 37 10.458333 37 11 C 37 11.541667 36.81233 12.063179 36.503906 12.410156 C 36.195482 12.757133 35.791666 13 35 13 C 34.208334 13 33.804518 12.757133 33.496094 12.410156 C 33.18767 12.063179 33 11.541667 33 11 C 33 10.458333 33.18767 9.9368209 33.496094 9.5898438 C 33.804518 9.2428665 34.208334 9 35 9 z M 24 13 C 22.458334 13 21.112148 13.632133 20.253906 14.597656 C 19.395664 15.563179 19 16.791667 19 18 C 19 19.208333 19.395664 20.436821 20.253906 21.402344 C 21.112148 22.367867 22.458334 23 24 23 C 25.541666 23 26.887852 22.367867 27.746094 21.402344 C 28.604336 20.436821 29 19.208333 29 18 C 29 16.791667 28.604336 15.563179 27.746094 14.597656 C 26.887852 13.632133 25.541666 13 24 13 z M 24 16 C 24.791666 16 25.195482 16.242867 25.503906 16.589844 C 25.81233 16.936821 26 17.458333 26 18 C 26 18.541667 25.81233 19.063179 25.503906 19.410156 C 25.195482 19.757133 24.791666 20 24 20 C 23.208334 20 22.804518 19.757133 22.496094 19.410156 C 22.18767 19.063179 22 18.541667 22 18 C 22 17.458333 22.18767 16.936821 22.496094 16.589844 C 22.804518 16.242867 23.208334 16 24 16 z M 13 20 C 11.458334 20 10.112148 20.632133 9.2539062 21.597656 C 8.3956641 22.563179 8 23.791667 8 25 C 8 26.208333 8.3956641 27.436821 9.2539062 28.402344 C 10.112148 29.367867 11.458334 30 13 30 C 14.541666 30 15.887852 29.367867 16.746094 28.402344 C 17.604336 27.436821 18 26.208333 18 25 C 18 23.791667 17.604336 22.563179 16.746094 21.597656 C 15.887852 20.632133 14.541666 20 13 20 z M 35 20 C 33.458334 20 32.112148 20.632133 31.253906 21.597656 C 30.395664 22.563179 30 23.791667 30 25 C 30 26.208333 30.395664 27.436821 31.253906 28.402344 C 32.112148 29.367867 33.458334 30 35 30 C 36.541666 30 37.887852 29.367867 38.746094 28.402344 C 39.604336 27.436821 40 26.208333 40 25 C 40 23.791667 39.604336 22.563179 38.746094 21.597656 C 37.887852 20.632133 36.541666 20 35 20 z M 13 23 C 13.791666 23 14.195482 23.242867 14.503906 23.589844 C 14.81233 23.936821 15 24.458333 15 25 C 15 25.541667 14.81233 26.063179 14.503906 26.410156 C 14.195482 26.757133 13.791666 27 13 27 C 12.208334 27 11.804518 26.757133 11.496094 26.410156 C 11.18767 26.063179 11 25.541667 11 25 C 11 24.458333 11.18767 23.936821 11.496094 23.589844 C 11.804518 23.242867 12.208334 23 13 23 z M 35 23 C 35.791666 23 36.195482 23.242867 36.503906 23.589844 C 36.81233 23.936821 37 24.458333 37 25 C 37 25.541667 36.81233 26.063179 36.503906 26.410156 C 36.195482 26.757133 35.791666 27 35 27 C 34.208334 27 33.804518 26.757133 33.496094 26.410156 C 33.18767 26.063179 33 25.541667 33 25 C 33 24.458333 33.18767 23.936821 33.496094 23.589844 C 33.804518 23.242867 34.208334 23 35 23 z M 7.0527344 32 C 5.3847659 32 4 33.384766 4 35.052734 L 4 35.949219 C 4 37.778128 5.154905 39.35297 6.7695312 40.382812 C 8.3841577 41.412656 10.526281 42.001953 13 42.001953 C 15.473607 42.001953 17.613818 41.412548 19.228516 40.382812 C 20.843213 39.353077 22 37.77836 22 35.949219 L 22 35.052734 C 22 33.384766 20.615234 32 18.947266 32 L 7.0527344 32 z M 29.052734 32 C 27.384766 32 26 33.384766 26 35.052734 L 26 35.949219 C 26 37.778128 27.154905 39.35297 28.769531 40.382812 C 30.384158 41.412656 32.526281 42.001953 35 42.001953 C 37.473607 42.001953 39.613818 41.412548 41.228516 40.382812 C 42.843213 39.353077 44 37.77836 44 35.949219 L 44 35.052734 C 44 33.384766 42.615234 32 40.947266 32 L 29.052734 32 z M 7.0527344 35 L 18.947266 35 C 18.993297 35 19 35.006703 19 35.052734 L 19 35.949219 C 19 36.503077 18.637239 37.203001 17.617188 37.853516 C 16.597135 38.50403 14.987393 39.001953 13 39.001953 C 11.012719 39.001953 9.4029362 38.504172 8.3828125 37.853516 C 7.3626888 37.202859 7 36.502309 7 35.949219 L 7 35.052734 C 7 35.006703 7.0067029 35 7.0527344 35 z M 29.052734 35 L 40.947266 35 C 40.993297 35 41 35.006703 41 35.052734 L 41 35.949219 C 41 36.503077 40.637239 37.203001 39.617188 37.853516 C 38.597135 38.50403 36.987393 39.001953 35 39.001953 C 33.012719 39.001953 31.402936 38.504172 30.382812 37.853516 C 29.362689 37.202859 29 36.502309 29 35.949219 L 29 35.052734 C 29 35.006703 29.006703 35 29.052734 35 z"></path>
</svg>