<svg width="30" height="30" viewBox="0 0 30 30" fill="none" xmlns="http://www.w3.org/2000/svg">
<path d="M20 1C17.243 1 15 3.243 15 6C13.895 6 13 6.895 13 8V13C13 14.105 13.895 15 15 15H25C26.105 15 27 14.105 27 13V8C27 6.895 26.105 6 25 6C25 3.243 22.757 1 20 1ZM20 3C21.654 3 23 4.346 23 6H17C17 4.346 18.346 3 20 3ZM8 15C7.61718 15.0003 7.23796 15.0739 6.88281 15.2168L2 17V25L6.2207 23.166C6.7187 22.95 7.28216 22.9424 7.78516 23.1484L16.8496 26.8516H16.8535C17.0552 26.9487 17.2761 26.9994 17.5 27C17.759 26.9991 18.0133 26.9311 18.2383 26.8027H18.2441L27.2305 21.8105L27.2285 21.8086C27.462 21.6789 27.6565 21.4892 27.7922 21.2592C27.9278 21.0291 27.9995 20.767 28 20.5C28 20.1022 27.842 19.7206 27.5607 19.4393C27.2794 19.158 26.8978 19 26.5 19C26.2797 19.0008 26.0623 19.0502 25.8633 19.1445V19.1426L19 22H17.5C17.8978 22 18.2794 21.842 18.5607 21.5607C18.842 21.2794 19 20.8978 19 20.5C18.9999 20.1835 18.8998 19.8752 18.7138 19.6191C18.5279 19.363 18.2657 19.1723 17.9648 19.0742V19.0723L9.27148 15.2812H9.25977C8.86523 15.0972 8.43535 15.0012 8 15Z" fill="#212b36"/>
</svg>
