<svg xmlns="http://www.w3.org/2000/svg" x="0px" y="0px" width="100" height="100" viewBox="0 0 48 48" style="fill: #2f3234">
<path d="M 28 1 C 24.704135 1 22 3.7041348 22 7 L 22 9.2792969 C 20.263561 9.9050955 19 11.559951 19 13.5 L 19 18.5 C 19 20.967501 21.032499 23 23.5 23 L 32.5 23 C 34.967501 23 37 20.967501 37 18.5 L 37 13.5 C 37 11.559951 35.736439 9.9050955 34 9.2792969 L 34 7 C 34 3.7041348 31.295865 1 28 1 z M 28 4 C 29.674135 4 31 5.3258652 31 7 L 31 9 L 25 9 L 25 7 C 25 5.3258652 26.325865 4 28 4 z M 23.5 12 L 32.5 12 C 33.346499 12 34 12.653501 34 13.5 L 34 18.5 C 34 19.346499 33.346499 20 32.5 20 L 23.5 20 C 22.653501 20 22 19.346499 22 18.5 L 22 13.5 C 22 12.653501 22.653501 12 23.5 12 z M 28 14 A 2 2 0 0 0 28 18 A 2 2 0 0 0 28 14 z M 41.613281 23.019531 C 40.493082 23.029231 39.429184 23.473279 38.484375 24.175781 C 37.470126 24.929243 34.418425 27.208042 31.777344 29.179688 C 31.204622 27.351508 29.505924 26 27.5 26 L 23.107422 26 C 20.296203 26 18.985532 25.772226 17.859375 25.533203 C 16.733218 25.29418 15.646783 25 13.826172 25 C 9.9413941 25 7.0123317 27.492986 5.09375 29.791016 C 3.1751683 32.089045 2.1347656 34.384766 2.1347656 34.384766 A 1.5002787 1.5002787 0 1 0 4.8652344 35.628906 C 4.8652344 35.628906 5.7643161 33.669814 7.3964844 31.714844 C 9.0286527 29.759873 11.25995 28 13.826172 28 C 15.347561 28 16.006735 28.20582 17.236328 28.466797 C 18.465921 28.727774 20.123641 29 23.107422 29 L 27.5 29 C 28.346499 29 29 29.653501 29 30.5 C 29 30.969499 28.794195 31.374296 28.470703 31.646484 C 28.470416 31.646699 28.429688 31.677734 28.429688 31.677734 A 1.5001988 1.5001988 0 0 0 28.345703 31.748047 A 1.5001988 1.5001988 0 0 0 28.34375 31.75 C 28.105295 31.908613 27.816466 32 27.5 32 L 20.5 32 A 1.50015 1.50015 0 1 0 20.5 35 L 27.5 35 C 28.440637 35 29.315307 34.701451 30.041016 34.199219 C 30.042186 34.198409 30.043753 34.198076 30.044922 34.197266 A 1.5001988 1.5001988 0 0 0 30.224609 34.082031 C 30.224609 34.082031 38.775959 27.696426 40.273438 26.583984 A 1.50015 1.50015 0 0 0 40.273438 26.582031 C 40.837627 26.162534 41.309824 26.022381 41.640625 26.019531 C 41.971426 26.016631 42.218287 26.096901 42.560547 26.439453 C 43.150922 27.029324 43.147391 27.935102 42.572266 28.533203 C 37.217133 33.036197 33.848465 36.036886 31.623047 37.794922 C 29.369881 39.574924 28.424996 40 27.5 40 C 23.847885 40 19.80067 39 15.5 39 C 13 39 11.242781 40.343609 10.300781 41.599609 C 9.3587815 42.855609 9.0449219 44.136719 9.0449219 44.136719 A 1.50015 1.50015 0 1 0 11.955078 44.863281 C 11.955078 44.863281 12.141219 44.144391 12.699219 43.400391 C 13.257219 42.656391 14 42 15.5 42 C 19.30733 42 23.336115 43 27.5 43 C 29.402004 43 31.084837 42.044435 33.482422 40.150391 C 35.849764 38.280238 39.175413 35.30991 44.498047 30.833984 A 1.50015 1.50015 0 0 0 44.681641 30.681641 C 44.688541 30.674741 44.690436 30.665143 44.697266 30.658203 L 44.701172 30.662109 L 44.753906 30.607422 A 1.50015 1.50015 0 0 0 45.083984 30.074219 C 46.330485 28.321792 46.248887 25.884269 44.681641 24.318359 C 43.8529 23.488911 42.73348 23.009881 41.613281 23.019531 z"></path>
</svg>