<svg xmlns="http://www.w3.org/2000/svg" x="0px" y="0px" width="100" height="100" viewBox="0 0 48 48" style="fill: #940d63">
<path d="M 25.5 6 C 24.136406 6 23 7.1364058 23 8.5 L 23 9 L 23 12.699219 L 14.21875 15.400391 C 12.478306 15.935527 10.991653 17.088164 10.037109 18.638672 L 3.2226562 29.714844 A 1.50015 1.50015 0 1 0 5.7773438 31.285156 L 12.591797 20.210938 C 13.165254 19.279446 14.058008 18.590395 15.101562 18.269531 L 23 15.837891 L 23 22.34375 L 16.712891 26.222656 A 1.5003827 1.5003827 0 1 0 18.287109 28.777344 L 27.195312 23.28125 A 1.50015 1.50015 0 0 0 27.212891 23.269531 C 27.850353 22.864016 28.660838 22.953287 29.193359 23.486328 C 29.840861 24.13383 29.82584 25.135655 29.162109 25.765625 C 29.162109 25.765625 29.162109 25.767578 29.162109 25.767578 L 16.791016 37.228516 A 1.50015 1.50015 0 0 0 16.783203 37.234375 C 15.57666 38.368504 13.985635 39 12.330078 39 L 4.5 39 A 1.50015 1.50015 0 1 0 4.5 42 L 12.330078 42 C 14.745217 42 17.069471 41.079302 18.830078 39.427734 L 18.833984 39.425781 L 23 35.566406 L 23 39 L 23 39.5 C 23 40.863594 24.136406 42 25.5 42 L 26 42 L 41 42 L 41.5 42 C 42.863594 42 44 40.863594 44 39.5 L 44 39 L 44 9 L 44 8.5 C 44 7.1364058 42.863594 6 41.5 6 L 41 6 L 26 6 L 25.5 6 z M 29 9 L 38 9 C 38 10.657 39.343 12 41 12 L 41 36 C 39.343 36 38 37.343 38 39 L 29 39 C 29 37.343 27.657 36 26 36 L 26 32.787109 L 30.800781 28.339844 C 31.604436 28.763373 32.526335 29 33.5 29 C 36.39546 29 38.9375 26.845054 38.9375 24 C 38.9375 21.154946 36.39546 19 33.5 19 C 32.074926 19 30.756737 19.503375 29.767578 20.365234 C 29.380565 20.211697 28.97966 20.097846 28.568359 20.052734 C 27.698405 19.957317 26.808639 20.124259 26 20.533203 L 26 12 C 27.657 12 29 10.657 29 9 z M 33.5 12 A 2 2 0 0 0 33.5 16 A 2 2 0 0 0 33.5 12 z M 33.5 22 C 34.95454 22 35.9375 22.979054 35.9375 24 C 35.9375 25.020946 34.95454 26 33.5 26 C 33.127664 26 32.782479 25.929499 32.474609 25.810547 C 32.777946 24.675972 32.641871 23.454198 32.068359 22.404297 C 32.463683 22.163303 32.947889 22 33.5 22 z M 33.5 32 A 2 2 0 0 0 33.5 36 A 2 2 0 0 0 33.5 32 z"></path>
</svg>