<svg width="30" height="30" viewBox="0 0 30 30" fill="none" xmlns="http://www.w3.org/2000/svg">
<path fill-rule="evenodd" clip-rule="evenodd" d="M20.1436 2.24033C20.585 1.99242 21.1438 2.14929 21.3917 2.5907C23.6347 6.58452 26.6562 16.9059 21.4347 27.3271C21.2079 27.7797 20.6571 27.9628 20.2045 27.736C19.7518 27.5092 19.5688 26.9585 19.7956 26.5059C24.6706 16.7762 21.8291 7.11351 19.7932 3.48844C19.5453 3.04703 19.7022 2.48823 20.1436 2.24033ZM15.0867 4.51367C15.5362 4.28092 16.0894 4.4567 16.3221 4.90628C18.0715 8.28538 20.4968 16.9239 16.3268 25.0834C16.0964 25.5342 15.5442 25.7128 15.0934 25.4824C14.6426 25.2521 14.4639 24.6998 14.6943 24.249C18.5015 16.7996 16.282 8.81649 14.6941 5.74916C14.4613 5.29957 14.6371 4.74643 15.0867 4.51367ZM10.3297 7.35777C10.7756 7.11793 11.3314 7.28492 11.5713 7.73076C12.2987 9.0829 13.1057 11.3416 13.3422 13.9626C13.5802 16.6007 13.2491 19.7263 11.542 22.6768C11.2885 23.115 10.7277 23.2647 10.2895 23.0112C9.85132 22.7577 9.70161 22.1969 9.95514 21.7587C11.4256 19.2172 11.7298 16.4945 11.5162 14.1274C11.3027 11.7602 10.5705 9.74016 9.95676 8.59932C9.71691 8.15348 9.8839 7.59762 10.3297 7.35777ZM4.95627 10.0802C5.39651 9.83026 5.95604 9.98448 6.20603 10.4247C6.72857 11.3449 7.30848 12.8359 7.4801 14.5197C7.65316 16.2176 7.42347 18.2844 6.08551 20.117C5.78699 20.5259 5.21352 20.6153 4.80464 20.3168C4.39576 20.0183 4.3063 19.4448 4.60482 19.0359C5.59659 17.6775 5.79916 16.1081 5.65622 14.7056C5.51321 13.3026 5.02318 12.0544 4.61181 11.33C4.36182 10.8898 4.51604 10.3302 4.95627 10.0802Z" fill="#b2adf4"/>
</svg>
