<svg width="25" height="24" viewBox="0 0 25 24" fill="none" xmlns="http://www.w3.org/2000/svg">
<g clip-path="url(#clip0_10884_35265)">
<path d="M6.13889 15.784C5.96889 15.823 5.78989 15.772 5.66689 15.647C5.54389 15.523 5.49389 15.344 5.53489 15.174C5.55989 15.072 6.16989 12.675 8.89889 12.045C9.04189 12.012 9.17889 11.99 9.31489 11.97L10.1469 8.36804C9.44389 8.16204 8.99489 7.64804 8.96889 7.61704C8.85389 7.48004 8.81689 7.29104 8.87189 7.11904C8.92589 6.94904 9.06389 6.82004 9.23589 6.78004L10.5959 6.46604C10.8879 5.44004 11.9309 4.80804 12.9819 5.05104L14.6159 5.42804L14.1859 3.56604C13.9349 2.48004 12.8519 1.80404 11.7669 2.05404L1.93989 4.32404C0.854893 4.57404 0.177893 5.65804 0.427893 6.74304L2.05889 13.807C2.90089 17.452 7.15389 18.601 9.29289 18.951C9.68389 19.015 10.0759 19.001 10.4529 18.918C9.60189 17.865 8.91789 16.592 8.81389 15.166L6.13889 15.784ZM3.07289 8.97904C2.95789 8.84104 2.92089 8.65204 2.97489 8.48104C3.02889 8.31004 3.16689 8.18104 3.33889 8.14204L6.28689 7.46104C6.45889 7.42104 6.63989 7.47704 6.76389 7.60804C6.88789 7.73904 6.93589 7.92604 6.89189 8.10104C6.87789 8.15704 6.52689 9.47604 5.26689 9.76704C3.99389 10.061 3.10989 9.02304 3.07289 8.97904Z" fill="#7D6249"/>
<path d="M18.009 12.423L20.957 13.104C21.129 13.144 21.31 13.088 21.434 12.957C21.558 12.826 21.606 12.639 21.562 12.464C21.548 12.408 21.197 11.089 19.936 10.798C18.663 10.504 17.779 11.542 17.742 11.586C17.627 11.724 17.59 11.913 17.644 12.084C17.699 12.254 17.837 12.383 18.009 12.423Z" fill="#433412"/>
<path d="M12.113 11.061L15.061 11.742C15.233 11.782 15.414 11.726 15.538 11.595C15.662 11.464 15.71 11.277 15.666 11.102C15.652 11.046 15.301 9.72703 14.04 9.43603C12.767 9.14203 11.883 10.18 11.846 10.224C11.731 10.362 11.694 10.551 11.748 10.722C11.803 10.893 11.941 11.022 12.113 11.061Z" fill="#433412"/>
<path d="M11.7149 15.358C11.8379 15.234 12.0159 15.182 12.1869 15.221L19.0629 16.808C19.2329 16.847 19.3709 16.972 19.4269 17.137C19.4829 17.303 19.4499 17.485 19.3379 17.62C19.2709 17.701 17.6759 19.59 14.9459 18.959C12.2169 18.329 11.6069 15.932 11.5819 15.83C11.5419 15.661 11.5919 15.482 11.7149 15.358Z" fill="#433412"/>
<path opacity="0.8" d="M3.33907 8.14096L6.28707 7.45996C6.45907 7.41996 6.64007 7.47596 6.76407 7.60696C6.88807 7.73796 6.93607 7.92496 6.89207 8.09996C6.87807 8.15696 6.52707 9.47596 5.26707 9.76696C3.99407 10.061 3.11007 9.02296 3.07307 8.97896C2.95807 8.84096 2.92107 8.65196 2.97507 8.48096C3.02907 8.30996 3.16707 8.18096 3.33907 8.14096Z" fill="#F5CA73"/>
<path opacity="0.55" d="M22.8101 7.32L12.9821 5.051C11.9301 4.808 10.8881 5.44 10.5961 6.466L9.23606 6.78C9.06406 6.82 8.92606 6.949 8.87206 7.119C8.81706 7.291 8.85406 7.48 8.96906 7.617C8.99506 7.648 9.44406 8.161 10.1461 8.367L9.31506 11.97C9.17906 11.99 9.04106 12.012 8.89906 12.045C6.17006 12.675 5.56006 15.072 5.53506 15.174C5.49406 15.344 5.54406 15.523 5.66706 15.647C5.79006 15.771 5.96806 15.823 6.13906 15.784L8.82006 15.165C9.03206 18.078 11.6671 20.351 13.1791 21.422C13.8431 21.892 14.6541 22.079 15.4561 21.948C17.5961 21.598 21.8491 20.449 22.6901 16.804L24.3211 9.74C24.5721 8.654 23.8961 7.571 22.8101 7.32Z" fill="#F8AA00"/>
</g>
<defs>
<clipPath id="clip0_10884_35265">
<rect width="24" height="24" fill="white" transform="translate(0.375)"/>
</clipPath>
</defs>
</svg>
