<svg width="30" height="30" viewBox="0 0 30 30" fill="none" xmlns="http://www.w3.org/2000/svg">
<path d="M20.1541 3.75H23.0357C23.9202 3.75 24.7237 4.11161 25.3061 4.69393C25.8884 5.27625 26.25 6.07982 26.25 6.96429V9.78643M26.25 20.2639V23.0357C26.25 23.9202 25.8884 24.7237 25.3061 25.3061C24.7237 25.8884 23.9202 26.25 23.0357 26.25H20.1343M9.73071 26.25H6.96429C6.07982 26.25 5.27625 25.8884 4.69393 25.3061C4.11161 24.7237 3.75 23.9202 3.75 23.0357V20.2639M3.75 9.74089V6.96429C3.75 6.07982 4.11161 5.27625 4.69393 4.69393C5.27625 4.11161 6.07982 3.75 6.96429 3.75H9.81268M9.73071 10.9221V12.495M15.5625 11.0309L15.5314 15.4334V15.4334C15.5262 16.2135 15.0909 17.0769 14.3233 17.2164C14.203 17.2383 14.0576 17.25 13.875 17.25M10.8836 19.5863C11.0341 19.7914 11.2104 19.9795 11.4075 20.1488C12.2555 20.8779 13.5 21.2566 14.7696 21.2716C16.0286 21.2866 17.3282 20.9443 18.3011 20.2318C18.5566 20.0448 18.7907 19.8311 18.9975 19.5905M20.1343 12.495V10.9221" stroke="#212b36" stroke-width="2.5" stroke-linecap="round" stroke-linejoin="round"/>
</svg>
