<svg xmlns="http://www.w3.org/2000/svg" x="0px" y="0px" width="100" height="100" viewBox="0 0 48 48" style="fill: #2f3234">
<path d="M 9.5 4 C 6.4802259 4 4 6.4802259 4 9.5 L 4 16.5 A 1.50015 1.50015 0 1 0 7 16.5 L 7 9.5 C 7 8.1017741 8.1017741 7 9.5 7 L 16.5 7 A 1.50015 1.50015 0 1 0 16.5 4 L 9.5 4 z M 31.5 4 A 1.50015 1.50015 0 1 0 31.5 7 L 38.5 7 C 39.898226 7 41 8.1017741 41 9.5 L 41 16.5 A 1.50015 1.50015 0 1 0 44 16.5 L 44 9.5 C 44 6.4802259 41.519774 4 38.5 4 L 31.5 4 z M 14.476562 13.978516 A 1.50015 1.50015 0 0 0 13 15.5 L 13 18.5 A 1.50015 1.50015 0 1 0 16 18.5 L 16 15.5 A 1.50015 1.50015 0 0 0 14.476562 13.978516 z M 24.476562 13.978516 A 1.50015 1.50015 0 0 0 23 15.5 L 23 23.5 C 23 24.346499 22.346499 25 21.5 25 A 1.50015 1.50015 0 1 0 21.5 28 C 23.967501 28 26 25.967501 26 23.5 L 26 15.5 A 1.50015 1.50015 0 0 0 24.476562 13.978516 z M 33.476562 13.978516 A 1.50015 1.50015 0 0 0 32 15.5 L 32 18.5 A 1.50015 1.50015 0 1 0 35 18.5 L 35 15.5 A 1.50015 1.50015 0 0 0 33.476562 13.978516 z M 5.4765625 29.978516 A 1.50015 1.50015 0 0 0 4 31.5 L 4 38.5 C 4 41.519774 6.4802259 44 9.5 44 L 16.5 44 A 1.50015 1.50015 0 1 0 16.5 41 L 9.5 41 C 8.1017741 41 7 39.898226 7 38.5 L 7 31.5 A 1.50015 1.50015 0 0 0 5.4765625 29.978516 z M 42.476562 29.978516 A 1.50015 1.50015 0 0 0 41 31.5 L 41 38.5 C 41 39.898226 39.898226 41 38.5 41 L 31.5 41 A 1.50015 1.50015 0 1 0 31.5 44 L 38.5 44 C 41.519774 44 44 41.519774 44 38.5 L 44 31.5 A 1.50015 1.50015 0 0 0 42.476562 29.978516 z M 29.5 30.984375 A 1.50015 1.50015 0 0 0 28.458984 31.419922 C 28.458984 31.419922 26.838717 33 24 33 C 21.161283 33 19.541016 31.419922 19.541016 31.419922 A 1.50015 1.50015 0 1 0 17.458984 33.580078 C 17.458984 33.580078 19.992717 36 24 36 C 28.007283 36 30.541016 33.580078 30.541016 33.580078 A 1.50015 1.50015 0 0 0 29.5 30.984375 z"></path>
</svg>