<svg width="24" height="24" viewBox="0 0 24 24" fill="none" xmlns="http://www.w3.org/2000/svg">
<path d="M12 22C7.582 22 3 19.418 3 15C3 13.895 3.895 13 5 13H19C20.105 13 21 13.895 21 15C21 19.418 16.418 22 12 22Z" fill="#48ADE6"/>
<g opacity="0.76">
<path d="M8 3.5C7.448 3.5 7 3.948 7 4.5V13.5C7 14.052 7.448 14.5 8 14.5C8.552 14.5 9 14.052 9 13.5V4.5C9 3.948 8.552 3.5 8 3.5Z" fill="#FFB30F"/>
<path d="M11 3C10.448 3 10 3.448 10 4V10C10 10.552 10.448 11 11 11C11.552 11 12 10.552 12 10V4C12 3.448 11.552 3 11 3Z" fill="#FFB30F"/>
<path d="M14 3C13.448 3 13 3.448 13 4V10C13 10.552 13.448 11 14 11C14.552 11 15 10.552 15 10V4C15 3.448 14.552 3 14 3Z" fill="#FFB30F"/>
</g>
<path d="M7 10H4C3.448 10 3 9.552 3 9C3 8.448 3.448 8 4 8H7V10Z" fill="#433630"/>
<path d="M15 8H21C21.552 8 22 8.448 22 9C22 9.552 21.552 10 21 10H15V8Z" fill="#433630"/>
<path d="M3.88305 5.00701C3.33405 5.07101 2.94205 5.56901 3.00705 6.11701C3.06705 6.62501 3.49905 7.00001 3.99905 7.00001C4.03805 7.00001 4.07805 6.99801 4.11705 6.99301L7.00005 6.65401V4.64001L3.88305 5.00701Z" fill="#433630"/>
<path d="M8.98096 4.40699C8.98396 4.43899 8.99996 4.46699 8.99996 4.49999V6.41899L9.99996 6.30099V4.28699L8.98096 4.40699Z" fill="#433630"/>
<path d="M13.014 3.93298L12 4.05198V6.06598L13 5.94798V3.99998C13 3.97598 13.012 3.95598 13.014 3.93298Z" fill="#433630"/>
<path d="M20.8829 3.00694L14.9399 3.70594C14.9699 3.80094 14.9999 3.89594 14.9999 3.99994V5.71294L21.1169 4.99294C21.6659 4.92894 22.0579 4.43094 21.9929 3.88294C21.9279 3.33494 21.4239 2.93794 20.8829 3.00694Z" fill="#433630"/>
</svg>
