<svg width="30" height="30" viewBox="0 0 30 30" fill="none" xmlns="http://www.w3.org/2000/svg">
<path fill-rule="evenodd" clip-rule="evenodd" d="M4.33398 27.1498L15.1043 16.2114L18.9007 20.0666L6.09716 27.2967C5.61034 27.5717 5.01409 27.5675 4.53034 27.2852L4.33398 27.1498ZM14.0182 15.1083L3.75 25.5363V4.68035L14.0182 15.1083V15.1083ZM20.4348 10.799L25.4512 13.6313C25.9442 13.9104 26.25 14.4333 26.25 15C26.25 15.5667 25.9442 16.0896 25.4512 16.3687L20.2977 19.2781L16.1915 15.1083L20.4348 10.799V10.799ZM4.22045 2.95121C4.3125 2.86058 4.4158 2.78142 4.53034 2.71475C5.01409 2.43246 5.61034 2.4283 6.09716 2.70329L19.0377 10.0105L15.1043 14.0052L4.22045 2.95121Z" fill="currentColor"/>
</svg>
