<svg width="30" height="30" viewBox="0 0 30 30" fill="none" xmlns="http://www.w3.org/2000/svg">
<path d="M13.9423 2.5C12.7736 2.5 11.8269 3.43229 11.8269 4.58333V6.66667H18.1731V4.58333C18.1731 3.43229 17.2264 2.5 16.0577 2.5H13.9423ZM18.1731 6.66667V7.70833C18.1731 8.85938 17.2264 9.79167 16.0577 9.79167H13.9423C12.7736 9.79167 11.8269 8.85938 11.8269 7.70833V6.66667H3.36538C2.19663 6.66667 1.25 7.59896 1.25 8.75V25.4167C1.25 26.5677 2.19663 27.5 3.36538 27.5H26.6346C27.8034 27.5 28.75 26.5677 28.75 25.4167V8.75C28.75 7.59896 27.8034 6.66667 26.6346 6.66667H18.1731ZM9.71154 11.875C10.7206 11.875 11.0337 12.581 11.0337 12.581C11.9359 12.581 12.3558 13.5532 12.3558 14.6948C12.3558 15.2646 12.1223 15.7365 12.1223 15.7365C12.2154 15.7938 12.3711 15.9761 12.333 16.3C12.2611 16.9032 12.0155 17.0566 11.86 17.0691C11.8007 17.6316 11.2346 18.3525 11.0357 18.4566V19.3986C11.4313 20.6663 13.3626 20.0448 13.9444 22.2917H5.48077C6.0625 20.0448 7.99385 20.6663 8.38942 19.3986V18.4566C8.19058 18.3525 7.6244 17.6316 7.56517 17.0691C7.40969 17.0566 7.16402 16.9032 7.0921 16.3C7.05296 15.9761 7.20661 15.7938 7.30074 15.7365C7.30074 15.7365 7.06937 15.2146 7.06937 14.6948C7.06832 13.1532 7.8426 11.875 9.71154 11.875ZM17.1154 16.0417H23.4615C24.0454 16.0417 24.5192 16.5083 24.5192 17.0833C24.5192 17.6583 24.0454 18.125 23.4615 18.125H17.1154C16.5315 18.125 16.0577 17.6583 16.0577 17.0833C16.0577 16.5083 16.5315 16.0417 17.1154 16.0417ZM17.1154 20.2083H23.4615C24.0454 20.2083 24.5192 20.675 24.5192 21.25C24.5192 21.825 24.0454 22.2917 23.4615 22.2917H17.1154C16.5315 22.2917 16.0577 21.825 16.0577 21.25C16.0577 20.675 16.5315 20.2083 17.1154 20.2083Z" fill="#212b36"/>
</svg>
