<svg xmlns="http://www.w3.org/2000/svg" x="0px" y="0px" width="100" height="100" viewBox="0 0 48 48" style="fill: #2f3234">
<path d="M 8.5 7 C 6.02 7 4 9.02 4 11.5 L 4 34.5 C 4 36.98 6.02 39 8.5 39 L 22.630859 39 C 22.320859 38.04 22.120781 37.04 22.050781 36 L 8.5 36 C 7.67 36 7 35.33 7 34.5 L 7 11.5 C 7 10.67 7.67 10 8.5 10 L 39.5 10 C 40.33 10 41 10.67 41 11.5 L 41 23.470703 C 42.1 24.040703 43.11 24.770859 44 25.630859 L 44 11.5 C 44 9.02 41.98 7 39.5 7 L 8.5 7 z M 16 16 A 3 3 0 0 0 16 22 A 3 3 0 0 0 16 16 z M 26.5 18 A 1.50015 1.50015 0 1 0 26.5 21 L 35.5 21 A 1.50015 1.50015 0 1 0 35.5 18 L 26.5 18 z M 12.5 24 C 11.672 24 11 24.672 11 25.5 C 11 27 11.000391 30 15.900391 30 L 16.099609 30 C 20.999609 30 21 27 21 25.5 C 21 24.672 20.328 24 19.5 24 L 12.5 24 z M 35 24 C 28.925 24 24 28.925 24 35 C 24 41.075 28.925 46 35 46 C 41.075 46 46 41.075 46 35 C 46 28.925 41.075 24 35 24 z M 41 30 C 41.25575 30 41.511531 30.097469 41.707031 30.292969 C 42.098031 30.683969 42.098031 31.316031 41.707031 31.707031 L 33.707031 39.707031 C 33.512031 39.902031 33.256 40 33 40 C 32.744 40 32.487969 39.902031 32.292969 39.707031 L 28.292969 35.707031 C 27.901969 35.316031 27.901969 34.683969 28.292969 34.292969 C 28.683969 33.901969 29.316031 33.901969 29.707031 34.292969 L 33 37.585938 L 40.292969 30.292969 C 40.488469 30.097469 40.74425 30 41 30 z"></path>
</svg>