<svg width="30" height="30" viewBox="0 0 30 30" fill="none" xmlns="http://www.w3.org/2000/svg">
<path d="M20.1563 1.25C18.715 1.33375 17.0604 2.13668 16.0767 3.15918C15.1879 4.08918 14.4867 5.47039 14.773 6.80664C16.3392 6.84789 17.9113 6.02416 18.8525 4.98291C19.7313 4.00916 20.3975 2.65 20.1563 1.25ZM20.2417 6.8042C17.9805 6.8042 17.035 8.19336 15.4688 8.19336C13.8575 8.19336 12.3846 6.89209 10.4346 6.89209C7.78207 6.89334 3.75 9.35041 3.75 15.1392C3.75 20.4054 8.52207 26.25 11.2158 26.25C12.8521 26.2663 13.2488 25.2212 15.4688 25.21C17.6913 25.1937 18.1708 26.2638 19.8096 26.25C21.6546 26.2362 23.0955 24.2088 24.148 22.6025C24.903 21.4525 25.2133 20.8654 25.7983 19.5654C21.4571 18.4654 20.5933 11.4646 25.7983 10.0171C24.8158 8.34084 21.948 6.8042 20.2417 6.8042Z" fill="currentColor"/>
</svg>
