<svg width="30" height="30" viewBox="0 0 30 30" fill="none" xmlns="http://www.w3.org/2000/svg">
<path fill-rule="evenodd" clip-rule="evenodd" d="M14.843 3.43725C18.6734 3.43873 21.7791 6.5453 21.7791 10.376V12.2482C23.3024 13.0363 24.3438 14.6265 24.3438 16.4607V21.822C24.3438 24.4407 22.2212 26.562 19.6037 26.562H10.0525C7.435 26.562 5.3125 24.4407 5.3125 21.822V16.4607C5.3125 14.6262 6.3541 13.0358 7.87781 12.2478V10.3455C7.89457 6.51371 11.0126 3.42197 14.843 3.43725ZM19.2791 10.376V11.7207H10.3778V10.3539C10.3899 7.90282 12.3849 5.92653 14.8348 5.93725H14.8403C17.2912 5.93725 19.2791 7.92511 19.2791 10.376ZM16.6666 19.1667C16.6666 18.2458 15.9208 17.5 14.9999 17.5C14.0791 17.5 13.3333 18.2458 13.3333 19.1667C13.3333 19.7825 13.6708 20.3139 14.1666 20.6022V21.6667C14.1666 22.1267 14.5399 22.5 14.9999 22.5C15.4599 22.5 15.8333 22.1267 15.8333 21.6667V20.6022C16.3291 20.313 16.6666 19.7817 16.6666 19.1667Z" fill="#b2adf4"/>
</svg>
