<svg width="30" height="30" viewBox="0 0 30 30" fill="none" xmlns="http://www.w3.org/2000/svg">
<path d="M15 27.5C13.4232 27.5 12.1442 26.1011 12.1442 24.375H17.8558C17.8558 26.1011 16.5768 27.5 15 27.5ZM5.3844 20.1899C6.2469 19.1763 7.86074 17.6514 7.86074 12.6562C7.86074 8.8623 10.2929 5.8252 13.5723 5.08008V4.0625C13.5723 3.19971 14.2116 2.5 15 2.5C15.7884 2.5 16.4277 3.19971 16.4277 4.0625V5.08008C19.7071 5.8252 22.1393 8.8623 22.1393 12.6562C22.1393 17.6514 23.7531 19.1763 24.6156 20.1899C24.8835 20.5049 25.0022 20.8813 25 21.25C24.9951 22.0508 24.4205 22.8125 23.5669 22.8125H6.43306C5.57949 22.8125 5.0045 22.0508 5.00003 21.25C4.9978 20.8813 5.11655 20.5044 5.3844 20.1899Z" fill="#212b36"/>
</svg>
