<svg xmlns="http://www.w3.org/2000/svg" x="0px" y="0px" width="100" height="100" viewBox="0 0 48 48" style="fill: #940d63">
<path d="M 16.5 4 C 14.032499 4 12 6.0324991 12 8.5 L 12 11.146484 L 10.158203 14.830078 A 1.50015 1.50015 0 0 0 10 15.5 C 10 17.112358 10.78138 18.562431 12 19.570312 L 12 39.5 C 12 41.985 14.015 44 16.5 44 L 31.5 44 C 33.985 44 36 41.985 36 39.5 L 36 19.570312 C 37.21862 18.562431 38 17.112358 38 15.5 A 1.50015 1.50015 0 0 0 37.841797 14.830078 L 36 11.146484 L 36 8.5 C 36 6.0324991 33.967501 4 31.5 4 L 16.5 4 z M 16.5 7 L 31.5 7 C 32.346499 7 33 7.6535009 33 8.5 L 33 10 L 15 10 L 15 8.5 C 15 7.6535009 15.653501 7 16.5 7 z M 14.427734 13 L 33.574219 13 L 34.908203 15.667969 C 34.775969 16.639299 33.542582 18 32 18 C 31.5 18 30.704024 17.666615 30.082031 17.251953 C 29.460039 16.837292 29.060547 16.439453 29.060547 16.439453 A 1.50015 1.50015 0 0 0 26.800781 16.599609 C 26.800781 16.599609 25.7 18 24 18 C 22.3 18 21.199219 16.599609 21.199219 16.599609 A 1.50015 1.50015 0 0 0 18.800781 16.599609 C 18.800781 16.599609 17.7 18 16 18 C 14.457834 18 13.226586 16.639253 13.09375 15.667969 L 14.427734 13 z M 28.076172 19.472656 C 28.245666 19.60226 28.214743 19.612563 28.417969 19.748047 C 29.295976 20.333385 30.5 21 32 21 C 32.340337 21 32.673616 20.967636 33 20.916016 L 33 39.5 C 33 40.328 32.328 41 31.5 41 L 16.5 41 C 15.672 41 15 40.328 15 39.5 L 15 20.916016 C 15.326384 20.967636 15.659663 21 16 21 C 17.846261 21 19.117728 20.261947 20 19.544922 C 20.882272 20.261947 22.153739 21 24 21 C 25.938338 21 27.205186 20.212926 28.076172 19.472656 z M 21.5 35 C 20.671 35 20 35.671 20 36.5 C 20 37.329 20.671 38 21.5 38 L 26.5 38 C 27.329 38 28 37.329 28 36.5 C 28 35.671 27.329 35 26.5 35 L 21.5 35 z"></path>
</svg>