<svg xmlns="http://www.w3.org/2000/svg" x="0px" y="0px" width="100" height="100" viewBox="0 0 48 48" style="fill: #fff">
<path d="M 34.833984 4 C 34.529984 4 34.231766 4.1177969 34.009766 4.3417969 L 31.675781 6.6757812 C 31.219781 7.1307813 31.219781 7.8692187 31.675781 8.3242188 L 34.009766 10.658203 C 34.342766 10.991203 34.842297 11.091156 35.279297 10.910156 C 35.715297 10.729156 36 10.304031 36 9.8320312 L 36 9 L 36.5 9 C 37.898226 9 39 10.101774 39 11.5 L 39 13.5 A 1.50015 1.50015 0 1 0 42 13.5 L 42 11.5 C 42 8.4802259 39.519774 6 36.5 6 L 36 6 L 36 5.1679688 C 36 4.6949687 35.715297 4.2698437 35.279297 4.0898438 C 35.135297 4.0298437 34.982984 4 34.833984 4 z M 18 5 C 10.838262 5 5 10.838262 5 18 C 5 24.840054 10.329073 30.460908 17.046875 30.953125 C 17.539076 37.671081 23.159754 43 30 43 C 37.161939 43 43 37.161933 43 30 C 43 23.15976 37.671085 17.539076 30.953125 17.046875 C 30.460908 10.329073 24.840054 5 18 5 z M 18 8 C 23.262584 8 27.54241 12.026096 27.958984 17.177734 C 25.897597 17.505744 23.999813 18.315941 22.378906 19.496094 C 21.97695 17.922417 20.535927 16.75 18.8125 16.75 L 17.4375 16.75 C 16.7825 16.75 16.25 16.245 16.25 15.625 C 16.25 15.005 16.7815 14.5 17.4375 14.5 L 18.751953 14.5 C 19.378953 14.5 19.677406 14.894109 19.691406 14.912109 C 20.056406 15.498109 20.828109 15.678547 21.412109 15.310547 C 21.998109 14.944547 22.177547 14.173891 21.810547 13.587891 C 21.717547 13.439891 20.912 12.253969 19.25 12.042969 L 19.25 11.25 C 19.25 10.56 18.69 10 18 10 C 17.31 10 16.75 10.56 16.75 11.25 L 16.75 12.068359 C 15.045 12.386359 13.75 13.857 13.75 15.625 C 13.75 17.624 15.4035 19.25 17.4375 19.25 L 18.8125 19.25 C 19.4675 19.25 20.001953 19.755 20.001953 20.375 C 20.001953 20.995 19.4675 21.5 18.8125 21.5 L 17.039062 21.5 C 16.383063 21.5 15.892297 21.168016 15.779297 21.041016 C 15.392297 20.480016 14.625641 20.332938 14.056641 20.710938 C 13.482641 21.093937 13.328937 21.869359 13.710938 22.443359 C 14.226938 23.217359 15.533109 24 17.037109 24 L 18.480469 24 C 17.842138 25.21926 17.401476 26.552876 17.177734 27.958984 C 12.026096 27.54241 8 23.262584 8 18 C 8 12.459738 12.459738 8 18 8 z M 30 20 C 35.540619 20 40 24.459384 40 30 C 40 35.540616 35.540619 40 30 40 C 24.459381 40 20 35.540616 20 30 C 20 29.963713 20.005478 29.928771 20.005859 29.892578 A 1.50015 1.50015 0 0 0 20.039062 29.195312 C 20.426148 24.302451 24.299077 20.427987 29.191406 20.039062 A 1.50015 1.50015 0 0 0 29.894531 20.005859 C 29.93007 20.005491 29.964371 20 30 20 z M 30 24 C 27.400753 24 25.472 26.124785 24.966797 28.75 L 24.25 28.75 A 1.250125 1.250125 0 1 0 24.25 31.25 L 24.966797 31.25 C 25.472 33.875215 27.400753 36 30 36 C 31.931184 36 33.964663 34.921698 34.900391 32.744141 A 1.2502336 1.2502336 0 1 0 32.603516 31.755859 C 32.035243 33.078302 31.108816 33.5 30 33.5 C 28.942271 33.5 28.111812 32.528997 27.669922 31.25 L 29.75 31.25 A 1.250125 1.250125 0 1 0 29.75 28.75 L 27.669922 28.75 C 28.111812 27.471003 28.942271 26.5 30 26.5 C 31.108816 26.5 32.035243 26.921698 32.603516 28.244141 A 1.2502336 1.2502336 0 1 0 34.900391 27.255859 C 33.964663 25.078302 31.931184 24 30 24 z M 7.4765625 32.978516 A 1.50015 1.50015 0 0 0 6 34.5 L 6 36.5 C 6 39.519774 8.4802259 42 11.5 42 L 12 42 L 12 42.832031 C 12 43.305031 12.284703 43.730156 12.720703 43.910156 C 12.864703 43.970156 13.017016 44 13.166016 44 C 13.470016 44 13.768234 43.882203 13.990234 43.658203 L 16.324219 41.324219 C 16.780219 40.869219 16.780219 40.130781 16.324219 39.675781 L 13.990234 37.341797 C 13.657234 37.008797 13.157703 36.908844 12.720703 37.089844 C 12.284703 37.270844 12 37.695969 12 38.167969 L 12 39 L 11.5 39 C 10.101774 39 9 37.898226 9 36.5 L 9 34.5 A 1.50015 1.50015 0 0 0 7.4765625 32.978516 z"></path>
</svg>