<svg xmlns="http://www.w3.org/2000/svg" x="0px" y="0px" width="100" height="100" viewBox="0 0 48 48" style="fill: #fff">
<path d="M 24 3.9980469 C 23.121002 3.9980501 22.240918 4.2002649 21.433594 4.6015625 L 6.1230469 12.214844 A 1.50015 1.50015 0 0 0 6.0917969 12.230469 C 5.2680839 12.66372 4.8872832 13.693322 5.0820312 14.480469 C 5.2767793 15.26761 6.0928973 16 7.0234375 16 L 12.5 16 A 1.50015 1.50015 0 1 0 12.5 13 L 11.28125 13 L 22.769531 7.2871094 C 23.544883 6.9017045 24.453624 6.9012851 25.230469 7.2871094 L 36.720703 13 L 35.5 13 A 1.50015 1.50015 0 1 0 35.5 16 L 40.976562 16 C 41.907103 16 42.723221 15.267615 42.917969 14.480469 C 43.112717 13.693322 42.731916 12.66372 41.908203 12.230469 A 1.50015 1.50015 0 0 0 41.876953 12.214844 L 26.566406 4.6015625 A 1.50015 1.50015 0 0 0 26.564453 4.5996094 C 25.756923 4.1985184 24.878998 3.9980437 24 3.9980469 z M 24 15 C 23.24 15 22.625 15.616 22.625 16.375 L 22.625 17.785156 C 20.134 17.964156 18.15625 20.0275 18.15625 22.5625 C 18.15625 25.2165 20.31475 27.375 22.96875 27.375 L 25.375 27.375 C 26.512 27.375 27.4375 28.2995 27.4375 29.4375 C 27.4375 30.5745 26.512 31.5 25.375 31.5 L 22.677734 31.5 C 21.400734 31.5 20.603156 30.970344 20.160156 30.527344 C 19.623156 29.990344 18.751844 29.990344 18.214844 30.527344 C 17.677844 31.064344 17.677844 31.935656 18.214844 32.472656 C 19.349844 33.607656 20.915 34.231141 22.625 34.244141 L 22.625 35.625 C 22.625 36.384 23.24 37 24 37 C 24.76 37 25.375 36.384 25.375 35.625 L 25.375 34.25 C 28.028 34.25 30.1875 32.0905 30.1875 29.4375 C 30.1875 26.7835 28.028 24.625 25.375 24.625 L 22.96875 24.625 C 21.83175 24.625 20.90625 23.7005 20.90625 22.5625 C 20.90625 21.4255 21.83175 20.5 22.96875 20.5 L 25.082031 20.5 C 26.371294 20.5 26.964229 21.240993 26.970703 21.244141 L 26.970703 21.246094 C 27.381028 21.883023 28.230582 22.063015 28.869141 21.654297 C 29.507141 21.243297 29.691297 20.393859 29.279297 19.755859 C 28.852297 19.092859 27.498 17.878484 25.375 17.771484 L 25.375 16.375 C 25.375 15.616 24.76 15 24 15 z M 8.4765625 17.978516 A 1.50015 1.50015 0 0 0 7 19.5 L 7 38.5 C 7 41.519774 9.4802259 44 12.5 44 L 35.5 44 C 38.519774 44 41 41.519774 41 38.5 L 41 19.5 A 1.50015 1.50015 0 1 0 38 19.5 L 38 38.5 C 38 39.898226 36.898226 41 35.5 41 L 12.5 41 C 11.101774 41 10 39.898226 10 38.5 L 10 19.5 A 1.50015 1.50015 0 0 0 8.4765625 17.978516 z"></path>
</svg>