<svg width="24" height="24" viewBox="0 0 24 24" fill="none" xmlns="http://www.w3.org/2000/svg">
<path opacity="0.35" d="M4 9H20V15C20 15.7956 19.6839 16.5587 19.1213 17.1213C18.5587 17.6839 17.7956 18 17 18H7C6.20435 18 5.44129 17.6839 4.87868 17.1213C4.31607 16.5587 4 15.7956 4 15V9Z" fill="#1F3C43"/>
<path d="M19.5 7H4.5C3.67157 7 3 7.67157 3 8.5C3 9.32843 3.67157 10 4.5 10H19.5C20.3284 10 21 9.32843 21 8.5C21 7.67157 20.3284 7 19.5 7Z" fill="#324E54"/>
<path opacity="0.8" d="M7.5 1C7.89782 1 8.27936 1.15804 8.56066 1.43934C8.84196 1.72064 9 2.10218 9 2.5V7H6V2.5C6 2.10218 6.15804 1.72064 6.43934 1.43934C6.72064 1.15804 7.10218 1 7.5 1Z" fill="#EEA413"/>
<path opacity="0.8" d="M16.5 1C16.8978 1 17.2794 1.15804 17.5607 1.43934C17.842 1.72064 18 2.10218 18 2.5V7H15V2.5C15 2.10218 15.158 1.72064 15.4393 1.43934C15.7206 1.15804 16.1022 1 16.5 1Z" fill="#EEA413"/>
<path d="M10 18H14V21C14 21.2652 13.8946 21.5196 13.7071 21.7071C13.5196 21.8946 13.2652 22 13 22H11C10.7348 22 10.4804 21.8946 10.2929 21.7071C10.1054 21.5196 10 21.2652 10 21V18Z" fill="#324E54"/>
</svg>
