<svg xmlns="http://www.w3.org/2000/svg" x="0px" y="0px" width="100" height="100" viewBox="0 0 48 48" style="fill: #940d63">
<path d="M 16.5 7 C 14.585045 7 13 8.5850452 13 10.5 L 13 22.5 C 13 24.414955 14.585045 26 16.5 26 L 31.5 26 C 33.414955 26 35 24.414955 35 22.5 L 35 10.5 C 35 8.5850452 33.414955 7 31.5 7 L 16.5 7 z M 5.5 9 A 1.50015 1.50015 0 1 0 5.5 12 L 8.5 12 A 1.50015 1.50015 0 1 0 8.5 9 L 5.5 9 z M 39.5 9 A 1.50015 1.50015 0 1 0 39.5 12 L 42.5 12 A 1.50015 1.50015 0 1 0 42.5 9 L 39.5 9 z M 16.5 10 L 31.5 10 C 31.795045 10 32 10.204955 32 10.5 L 32 22.5 C 32 22.795045 31.795045 23 31.5 23 L 16.5 23 C 16.204955 23 16 22.795045 16 22.5 L 16 10.5 C 16 10.204955 16.204955 10 16.5 10 z M 5.5 15 A 1.50015 1.50015 0 1 0 5.5 18 L 8.5 18 A 1.50015 1.50015 0 1 0 8.5 15 L 5.5 15 z M 39.5 15 A 1.50015 1.50015 0 1 0 39.5 18 L 42.5 18 A 1.50015 1.50015 0 1 0 42.5 15 L 39.5 15 z M 5.5 21 A 1.50015 1.50015 0 1 0 5.5 24 L 8.5 24 A 1.50015 1.50015 0 1 0 8.5 21 L 5.5 21 z M 39.5 21 A 1.50015 1.50015 0 1 0 39.5 24 L 42.5 24 A 1.50015 1.50015 0 1 0 42.5 21 L 39.5 21 z M 5.5 29 A 1.50015 1.50015 0 1 0 5.5 32 L 14 32 L 14 41.5 C 14 42.863594 15.136406 44 16.5 44 L 31.5 44 C 32.863594 44 34 42.863594 34 41.5 L 34 32 L 42.5 32 A 1.50015 1.50015 0 1 0 42.5 29 L 5.5 29 z M 17 32 L 18.501953 32 C 19.428277 33.764829 21.54029 35 24 35 C 26.45971 35 28.571723 33.764829 29.498047 32 L 31 32 L 31 38 C 29.343 38 28 39.343 28 41 L 20 41 C 20 39.343 18.657 38 17 38 L 17 32 z"></path>
</svg>