<svg width="30" height="30" viewBox="0 0 30 30" fill="none" xmlns="http://www.w3.org/2000/svg">
<path d="M3.54167 2.5C2.96667 2.5 2.5 2.98696 2.5 3.58696C2.5 4.18696 2.96667 4.67391 3.54167 4.67391H4.58333C5.15833 4.67391 5.625 4.18696 5.625 3.58696C5.625 2.98696 5.15833 2.5 4.58333 2.5H3.54167ZM7.70833 2.5V9.02174H22.2917V2.5H7.70833ZM25.4167 2.5C24.8417 2.5 24.375 2.98696 24.375 3.58696C24.375 4.18696 24.8417 4.67391 25.4167 4.67391H26.4583C27.0333 4.67391 27.5 4.18696 27.5 3.58696C27.5 2.98696 27.0333 2.5 26.4583 2.5H25.4167ZM3.54167 6.84783C2.96667 6.84783 2.5 7.33478 2.5 7.93478C2.5 8.53478 2.96667 9.02174 3.54167 9.02174H4.58333C5.15833 9.02174 5.625 8.53478 5.625 7.93478C5.625 7.33478 5.15833 6.84783 4.58333 6.84783H3.54167ZM25.4167 6.84783C24.8417 6.84783 24.375 7.33478 24.375 7.93478C24.375 8.53478 24.8417 9.02174 25.4167 9.02174H26.4583C27.0333 9.02174 27.5 8.53478 27.5 7.93478C27.5 7.33478 27.0333 6.84783 26.4583 6.84783H25.4167ZM4.58333 11.1957C3.43229 11.1957 2.5 12.1685 2.5 13.3696C2.5 14.5707 3.43229 15.5435 4.58333 15.5435H5.625V25.3261C5.62545 25.4672 5.63908 25.608 5.66569 25.7464C5.66791 25.7579 5.67143 25.7689 5.67383 25.7804C5.77339 26.2666 6.02965 26.7024 6.39986 27.0154C6.77008 27.3283 7.2319 27.4993 7.70833 27.5H22.2917C22.4269 27.4995 22.5619 27.4853 22.6945 27.4575C22.7055 27.4552 22.7161 27.4515 22.7271 27.449C23.193 27.3452 23.6107 27.0778 23.9106 26.6914C24.2104 26.3051 24.3744 25.8232 24.375 25.3261V15.5435H25.4167C26.5677 15.5435 27.5 14.5707 27.5 13.3696C27.5 12.1685 26.5677 11.1957 25.4167 11.1957H18.5177H10.8333H4.58333ZM7.70833 13.3696H10.8333V16.0721C11.6927 17.0677 12.9979 17.7174 14.4792 17.7174C17.0677 17.7174 19.1667 15.7707 19.1667 13.3696H22.2917V23.1522C21.7391 23.1522 21.2092 23.3812 20.8185 23.7889C20.4278 24.1966 20.2083 24.7495 20.2083 25.3261H9.79167C9.79167 24.7495 9.57217 24.1966 9.18147 23.7889C8.79077 23.3812 8.26087 23.1522 7.70833 23.1522V13.3696ZM15 20.9783C14.7237 20.9783 14.4588 21.0928 14.2634 21.2966C14.0681 21.5005 13.9583 21.7769 13.9583 22.0652C13.9583 22.3535 14.0681 22.63 14.2634 22.8338C14.4588 23.0377 14.7237 23.1522 15 23.1522C15.2763 23.1522 15.5412 23.0377 15.7366 22.8338C15.9319 22.63 16.0417 22.3535 16.0417 22.0652C16.0417 21.7769 15.9319 21.5005 15.7366 21.2966C15.5412 21.0928 15.2763 20.9783 15 20.9783Z" fill="#b2adf4"/>
</svg>
